<svg width="505" height="481" viewBox="0 0 505 481" fill="none" xmlns="http://www.w3.org/2000/svg">
<circle cx="264.5" cy="240.5" r="240.5" fill="#F3F9FE"/>
<circle cx="233.219" cy="25.2193" r="4.2193" fill="#C4C4C4"/>
<circle cx="318.219" cy="32.2193" r="4.2193" fill="#C4C4C4"/>
<circle cx="432.637" cy="98.6371" r="2.63706" fill="#C4C4C4"/>
<circle cx="352.05" cy="190.197" r="3.16447" fill="#C4C4C4"/>
<circle cx="256.061" cy="171.21" r="3.16447" fill="#C4C4C4"/>
<circle cx="311.44" cy="228.699" r="3.69189" fill="#C4C4C4"/>
<circle cx="401.1" cy="254.014" r="2.63706" fill="#C4C4C4"/>
<circle cx="485.486" cy="259.288" r="2.63706" fill="#C4C4C4"/>
<circle cx="446.457" cy="173.848" r="4.74671" fill="#C4C4C4"/>
<circle cx="390.552" cy="303.591" r="3.69189" fill="#C4C4C4"/>
<circle cx="313.692" cy="440.692" r="3.69189" fill="#C4C4C4"/>
<circle cx="313.022" cy="386.395" r="2.10965" fill="#C4C4C4"/>
<circle cx="186.692" cy="420.692" r="3.69189" fill="#C4C4C4"/>
<circle cx="74.6317" cy="416.985" r="4.2193" fill="#C4C4C4"/>
<circle cx="119.219" cy="32.2193" r="4.2193" fill="#C4C4C4"/>
<circle cx="68.6919" cy="276.692" r="3.69189" fill="#C4C4C4"/>
<circle cx="222.834" cy="325.742" r="3.69189" fill="#C4C4C4"/>
<circle cx="314.077" cy="329.434" r="5.88377" stroke="#C4C4C4" stroke-width="3"/>
<circle cx="367" cy="81" r="6" stroke="#C4C4C4" stroke-width="4"/>
<circle cx="82" cy="137" r="5" stroke="#C4C4C4" stroke-width="4"/>
<circle cx="454.896" cy="364.771" r="3.69189" fill="#C4C4C4"/>
<circle cx="483.164" cy="95.1645" r="3.16447" fill="#C4C4C4"/>
<circle cx="160.072" cy="82.6053" r="6.32895" fill="#C4C4C4"/>
<mask id="path-25-inside-1" fill="white">
<path d="M112.668 223.195C81.2121 150.292 138.182 121.603 169.654 121.603C187.066 121.603 193.451 126.756 200.297 136.041C200.297 136.041 210.716 128.982 225.215 130.969C252.005 134.639 277.308 160.65 254.808 222.955"/>
</mask>
<path d="M112.668 223.195C81.2121 150.292 138.182 121.603 169.654 121.603C187.066 121.603 193.451 126.756 200.297 136.041C200.297 136.041 210.716 128.982 225.215 130.969C252.005 134.639 277.308 160.65 254.808 222.955" fill="#CFB69E"/>
<path d="M200.297 136.041L197.882 137.821L199.593 140.141L201.979 138.524L200.297 136.041ZM225.215 130.969L225.622 127.996L225.622 127.996L225.215 130.969ZM115.422 222.006C100.061 186.404 106.479 162.288 119.821 147.035C133.4 131.511 154.626 124.603 169.654 124.603V118.603C153.21 118.603 130.215 126.038 115.305 143.085C100.157 160.402 93.8188 187.082 109.913 224.383L115.422 222.006ZM169.654 124.603C178.081 124.603 183.492 125.853 187.535 127.991C191.57 130.127 194.555 133.309 197.882 137.821L202.711 134.26C199.192 129.488 195.562 125.451 190.341 122.688C185.126 119.929 178.638 118.603 169.654 118.603V124.603ZM200.297 136.041C201.979 138.524 201.979 138.525 201.978 138.526C201.977 138.526 201.977 138.526 201.976 138.527C201.975 138.527 201.974 138.528 201.974 138.528C201.973 138.529 201.972 138.529 201.972 138.53C201.972 138.53 201.974 138.528 201.979 138.525C201.989 138.518 202.008 138.506 202.037 138.487C202.095 138.45 202.191 138.389 202.324 138.309C202.589 138.149 203 137.911 203.544 137.626C204.634 137.055 206.249 136.299 208.293 135.597C212.386 134.192 218.133 133.026 224.808 133.941L225.622 127.996C217.798 126.924 211.086 128.295 206.345 129.922C203.971 130.737 202.076 131.621 200.759 132.312C200.1 132.657 199.583 132.955 199.222 133.173C199.042 133.282 198.9 133.371 198.798 133.437C198.747 133.469 198.706 133.496 198.675 133.516C198.66 133.526 198.647 133.535 198.637 133.542C198.632 133.545 198.628 133.548 198.624 133.55C198.622 133.552 198.62 133.553 198.619 133.554C198.618 133.555 198.617 133.555 198.616 133.556C198.615 133.556 198.614 133.557 200.297 136.041ZM224.808 133.941C237.376 135.663 249.417 142.572 255.775 156.239C262.175 169.995 263.092 191.184 251.987 221.936L257.63 223.974C269.024 192.422 268.54 169.452 261.215 153.708C253.85 137.876 239.844 129.945 225.622 127.996L224.808 133.941Z" fill="#7F7F7F" mask="url(#path-25-inside-1)"/>
<path d="M233.81 230.266C236.823 223.983 238.755 217.087 239.371 209.815C240.25 209.61 241.163 209.5 242.102 209.5C248.756 209.5 254.149 214.894 254.149 221.547C254.149 228.2 248.756 233.593 242.102 233.593C238.887 233.593 235.973 232.327 233.81 230.266Z" fill="#FFD5AF" stroke="#7F7F7F" stroke-width="3"/>
<path d="M124.547 212.5C125.486 212.5 126.4 212.61 127.278 212.815C127.895 220.087 129.827 226.983 132.839 233.266C130.676 235.327 127.762 236.593 124.547 236.593C117.894 236.593 112.5 231.2 112.5 224.547C112.5 217.894 117.894 212.5 124.547 212.5Z" fill="#FFD5AF" stroke="#7F7F7F" stroke-width="3"/>
<path d="M424.528 274.92C420.517 284.124 415.242 290.521 408.693 292.839H297.74C291.191 290.521 285.916 284.124 281.905 274.919C277.866 265.652 275.235 253.819 273.849 241.289C271.073 216.184 273.343 188.749 278.898 174.259C290.704 143.461 320.236 123.103 353.216 123.103C386.196 123.103 415.729 143.461 427.534 174.259C433.089 188.749 435.359 216.185 432.583 241.29C431.198 253.82 428.566 265.653 424.528 274.92Z" fill="#CFB69E" stroke="#7F7F7F" stroke-width="3"/>
<path d="M268.568 82.2733L270 86.8576L271.432 82.2733C273.194 76.6308 279.849 73.0588 286.719 73.5435C290.093 73.7814 293.389 75.0059 296.001 77.3586C298.601 79.7006 300.613 83.24 301.299 88.2734C302.846 99.6221 295.198 109.635 286.655 117.02C282.43 120.671 278.094 123.585 274.808 125.587C273.167 126.587 271.793 127.357 270.832 127.876C270.505 128.052 270.225 128.2 270 128.317C269.775 128.2 269.495 128.052 269.168 127.876C268.207 127.357 266.833 126.587 265.192 125.587C261.906 123.585 257.57 120.671 253.345 117.02C244.802 109.635 237.154 99.6221 238.701 88.2734C239.388 83.2398 241.399 79.7003 243.999 77.3583C246.612 75.0055 249.908 73.7811 253.281 73.5432C260.151 73.0586 266.806 76.6307 268.568 82.2733Z" fill="#FFCCAF" stroke="#7F7F7F" stroke-width="3"/>
<path d="M193.186 179.893C194.005 178.711 194.639 177.672 195.115 176.831C195.632 177.518 196.282 178.356 197.058 179.311C199.266 182.028 202.502 185.698 206.624 189.522C214.609 196.928 226.028 205.011 239.828 207.734V208.104L239.828 211.664L239.828 215.224L239.828 215.342H239.828V216.842C239.828 247.82 214.716 272.932 183.738 272.932C152.761 272.932 127.648 247.82 127.648 216.842V207.978C154.835 207.691 171.917 199.603 182.26 191.397C187.515 187.228 191.004 183.049 193.186 179.893Z" fill="#FFD5AF" stroke="#7F7F7F" stroke-width="3"/>
<path d="M364.592 176.831C365.11 177.518 365.759 178.356 366.536 179.311C368.743 182.028 371.979 185.698 376.102 189.522C384.087 196.928 395.505 205.011 409.305 207.734V216.842C409.305 247.82 384.193 272.932 353.215 272.932C322.238 272.932 297.125 247.82 297.125 216.842V207.978C324.313 207.691 341.395 199.603 351.737 191.397C356.992 187.228 360.481 183.049 362.664 179.893C363.482 178.711 364.117 177.672 364.592 176.831Z" fill="#FFD5AF" stroke="#7F7F7F" stroke-width="3"/>
<path d="M100.51 356.874C101.203 311.501 138.2 274.933 183.739 274.933C229.277 274.933 266.274 311.501 266.967 356.874H100.51Z" fill="#BEEEFF" stroke="#7F7F7F" stroke-width="3"/>
<path d="M183.739 274.933C190.504 274.933 197.077 275.741 203.372 277.263C201.585 286.479 193.476 293.439 183.739 293.439C174.001 293.439 165.892 286.479 164.106 277.263C170.4 275.741 176.974 274.933 183.739 274.933Z" fill="#FFD5AF" stroke="#7F7F7F" stroke-width="3"/>
<path d="M269.987 356.874C270.681 311.501 307.678 274.933 353.216 274.933C398.754 274.933 435.751 311.501 436.444 356.874H269.987Z" fill="#FFD8E6" stroke="#7F7F7F" stroke-width="3"/>
<path d="M353.216 274.933C359.981 274.933 366.555 275.741 372.849 277.263C371.062 286.479 362.953 293.439 353.216 293.439C343.479 293.439 335.37 286.479 333.584 277.263C339.877 275.741 346.452 274.933 353.216 274.933Z" fill="#FFD5AF" stroke="#7F7F7F" stroke-width="3"/>
<path d="M324.935 351.68C324.935 383.745 298.941 409.74 266.875 409.74C234.81 409.74 208.815 383.745 208.815 351.68C208.815 319.614 234.81 293.62 266.875 293.62C298.941 293.62 324.935 319.614 324.935 351.68Z" fill="#FFD5AF" stroke="#7F7F7F" stroke-width="3"/>
<path d="M339.585 342.69L339.585 342.69C342.169 348.821 339.293 355.886 333.162 358.469C330.575 359.56 327.826 359.668 325.309 358.972C325.917 351.609 325.188 344.05 322.985 336.651C323.252 336.513 323.526 336.385 323.806 336.266C329.937 333.683 337.002 336.558 339.585 342.69Z" fill="#FFD5AF" stroke="#7F7F7F" stroke-width="3"/>
<path d="M269 296C263.718 293.098 256.322 284.834 269 275C265.904 278.585 261.568 287.805 269 296Z" fill="#7F7F7F" stroke="#7F7F7F"/>
<path d="M209.714 336.052C209.998 336.161 210.275 336.28 210.547 336.41C208.591 343.878 208.114 351.456 208.966 358.795C206.473 359.574 203.722 359.558 201.1 358.554C194.887 356.175 191.778 349.21 194.157 342.996C196.535 336.782 203.501 333.674 209.714 336.052Z" fill="#FFD5AF" stroke="#7F7F7F" stroke-width="3"/>
<path d="M130 385C130 420.899 100.899 450 65 450C29.1015 450 0 420.899 0 385C0 349.101 29.1015 320 65 320C100.899 320 130 349.101 130 385Z" fill="#FDE1C1"/>
<path d="M64.3993 356.491L61.499 357.687C59.9483 358.326 59.2143 360.114 59.8536 361.653L60.5993 363.452C59.1433 364.529 57.8766 365.808 56.7875 367.264L54.9882 366.518C54.2424 366.21 53.4137 366.21 52.6679 366.518C51.9221 366.826 51.3302 367.418 51.0225 368.164L49.815 371.064C49.1757 372.615 49.9097 374.39 51.4605 375.03L54.124 376.13C54.7277 376.379 55.4025 376.095 55.6511 375.491C55.8997 374.888 55.6156 374.213 55.0118 373.964L52.3483 372.863C51.9932 372.721 51.8274 372.307 51.9695 371.952L53.177 369.051C53.248 368.886 53.3782 368.744 53.5558 368.673C53.7215 368.602 53.9109 368.602 54.0885 368.673L56.752 369.774C57.2729 369.987 57.8648 369.809 58.1726 369.347C59.3682 367.548 60.8835 366.033 62.6828 364.837C63.1445 364.529 63.3339 363.926 63.1208 363.417L62.0199 360.753C61.8778 360.398 62.0436 359.995 62.3987 359.841L65.299 358.646C65.4647 358.575 65.6541 358.575 65.8317 358.646C65.9974 358.717 66.1395 358.847 66.2105 359.025L67.3115 361.688C67.5245 362.209 68.0691 362.505 68.6255 362.387C70.7326 361.96 72.8871 361.972 74.9943 362.387C75.5388 362.493 76.0952 362.197 76.3083 361.688L77.4092 359.025C77.5513 358.67 77.9656 358.504 78.3207 358.646L81.221 359.853C81.3868 359.924 81.5288 360.055 81.5999 360.232C81.6709 360.398 81.6709 360.587 81.5999 360.765L80.4989 363.428C80.2858 363.949 80.4634 364.541 80.9251 364.849C82.7245 366.045 84.2397 367.56 85.4354 369.359C85.7431 369.821 86.3469 370.01 86.8559 369.797L89.5194 368.696C89.697 368.625 89.8746 368.625 90.0521 368.696C90.2179 368.767 90.3599 368.898 90.431 369.075L91.6266 371.975C91.6976 372.141 91.6976 372.331 91.6266 372.508C91.5556 372.674 91.4254 372.816 91.2478 372.887L88.5842 373.988C88.0634 374.201 87.7793 374.745 87.8858 375.302C88.312 377.409 88.3001 379.563 87.8858 381.671C87.7793 382.215 88.0752 382.772 88.5842 382.985L91.2478 384.086C91.6029 384.228 91.7686 384.642 91.6266 384.997L90.4191 387.897C90.2771 388.253 89.8627 388.418 89.5076 388.276L86.8441 387.175C86.3232 386.962 85.7313 387.14 85.4235 387.601C84.2279 389.401 82.7126 390.916 80.9133 392.112C80.4516 392.419 80.2622 393.023 80.4753 393.532L81.5762 396.196C81.6472 396.362 81.6472 396.551 81.5762 396.729C81.5052 396.894 81.3749 397.036 81.1974 397.107L78.2971 398.303C78.1313 398.374 77.9419 398.374 77.7644 398.303C77.5986 398.232 77.4566 398.102 77.3856 397.924L76.2846 395.261C76.036 394.657 75.3494 394.373 74.7575 394.621C74.1538 394.87 73.8697 395.557 74.1183 396.148L75.2192 398.812C75.527 399.558 76.1189 400.15 76.8647 400.457C77.2435 400.611 77.6341 400.694 78.0248 400.694C78.4155 400.694 78.8179 400.611 79.1849 400.457L82.0852 399.262C82.831 398.954 83.4229 398.362 83.7307 397.616C84.0385 396.871 84.0385 396.042 83.7307 395.296L82.9849 393.497C84.441 392.419 85.7076 391.141 86.7967 389.685L88.5961 390.431C90.1469 391.07 91.9225 390.336 92.5618 388.785L93.7693 385.885C94.4085 384.334 93.6746 382.558 92.1238 381.919L90.3244 381.173C90.5849 379.386 90.5849 377.575 90.3244 375.787L92.1238 375.041C92.8696 374.734 93.4615 374.142 93.7693 373.396C94.077 372.65 94.077 371.821 93.7693 371.076L92.5736 368.175C92.2658 367.43 91.6739 366.838 90.9282 366.53C90.1824 366.222 89.3537 366.222 88.6079 366.53L86.8086 367.276C85.7313 365.82 84.4528 364.541 83.0086 363.464L83.7544 361.665C84.0621 360.919 84.0621 360.09 83.7544 359.344C83.4466 358.598 82.8547 358.007 82.1089 357.699L79.2086 356.491C77.6578 355.852 75.8821 356.586 75.2429 358.137L74.4971 359.936C72.7096 359.676 70.8984 359.676 69.1108 359.936L68.365 358.137C68.0573 357.391 67.4654 356.799 66.7196 356.491C65.9738 356.184 65.1451 356.184 64.3993 356.491Z" fill="#7C7C7C"/>
<path d="M81.3276 378.403C81.2921 373.171 77.0186 368.945 71.7981 368.945C71.7744 368.945 71.7507 368.945 71.7271 368.945C69.1819 368.969 66.7906 369.975 65.0031 371.786C63.2156 373.597 62.2449 376 62.2567 378.545C62.2567 379.185 62.7894 379.706 63.4287 379.706H63.4405C64.0916 379.706 64.6125 379.173 64.6006 378.522C64.5888 376.604 65.3227 374.793 66.6723 373.42C68.0218 372.046 69.8211 371.289 71.7389 371.277C71.7507 371.277 71.7744 371.277 71.7862 371.277C75.7283 371.277 78.9482 374.473 78.9719 378.415C78.9956 382.381 75.7993 385.624 71.8336 385.66C71.1825 385.66 70.6616 386.193 70.6735 386.844C70.6735 387.483 71.2062 388.004 71.8454 388.004C71.8454 388.004 71.8454 388.004 71.8573 388.004C77.1252 387.968 81.3631 383.659 81.3276 378.403Z" fill="#7C7C7C"/>
<path d="M52.0167 413.74H54.3015C55.6983 413.74 56.8348 412.603 56.8348 411.206V410.034C57.9712 409.727 59.0603 409.277 60.0784 408.685L60.907 409.513C61.3805 409.987 62.0198 410.259 62.6946 410.259C63.3693 410.259 64.0086 409.999 64.4821 409.513L66.092 407.903C66.5656 407.43 66.8378 406.791 66.8378 406.116C66.8378 405.441 66.5774 404.802 66.092 404.328L65.2634 403.5C65.8553 402.482 66.3051 401.393 66.6129 400.256H67.7849C69.1817 400.256 70.3182 399.12 70.3182 397.723V395.438C70.3182 394.041 69.1817 392.905 67.7849 392.905H66.6129C66.3051 391.768 65.8553 390.679 65.2634 389.661L66.092 388.833C66.5656 388.359 66.8378 387.72 66.8378 387.045C66.8378 386.37 66.5774 385.731 66.092 385.257L64.4821 383.648C64.0086 383.174 63.3693 382.902 62.6946 382.902C62.0198 382.902 61.3805 383.162 60.907 383.648L60.0784 384.476C59.0603 383.884 57.9712 383.434 56.8348 383.127V381.955C56.8348 380.558 55.6983 379.421 54.3015 379.421H52.0167C50.6199 379.421 49.4834 380.558 49.4834 381.955V383.127C48.347 383.434 47.2579 383.884 46.2398 384.476L45.4112 383.648C44.9376 383.174 44.2984 382.902 43.6236 382.902C42.9489 382.902 42.3096 383.162 41.8361 383.648L40.2261 385.257C39.2436 386.24 39.2436 387.85 40.2261 388.833L41.0548 389.661C40.4629 390.679 40.0131 391.768 39.7053 392.905H38.5333C37.1364 392.905 36 394.041 36 395.438V397.723C36 399.12 37.1364 400.256 38.5333 400.256H39.7053C40.0131 401.393 40.4629 402.482 41.0548 403.5L40.2261 404.328C39.2436 405.311 39.2436 406.921 40.2261 407.903L41.8361 409.513C42.3096 409.987 42.9489 410.259 43.6236 410.259C44.2984 410.259 44.9376 409.999 45.4112 409.513L46.2398 408.685C47.2579 409.277 48.347 409.727 49.4834 410.034V411.206C49.4953 412.603 50.6317 413.74 52.0167 413.74ZM46.7252 406.234C46.5239 406.104 46.299 406.033 46.0741 406.033C45.7663 406.033 45.4704 406.151 45.2454 406.376L43.7657 407.856C43.7183 407.903 43.671 407.915 43.6355 407.915C43.6 407.915 43.5526 407.903 43.5053 407.856L41.8953 406.246C41.8243 406.175 41.8243 406.057 41.8953 405.986L43.375 404.506C43.7657 404.115 43.8367 403.488 43.5171 403.026C42.6648 401.76 42.0847 400.351 41.7888 398.859C41.6822 398.315 41.1969 397.912 40.6405 397.912H38.5452C38.4386 397.912 38.3558 397.829 38.3558 397.723V395.438C38.3558 395.332 38.4386 395.249 38.5452 395.249H40.6405C41.1969 395.249 41.6822 394.858 41.7888 394.302C42.0847 392.81 42.6648 391.401 43.5171 390.135C43.8249 389.673 43.7657 389.046 43.375 388.655L41.8953 387.175C41.8243 387.104 41.8243 386.986 41.8953 386.915L43.5053 385.305C43.5526 385.257 43.6 385.246 43.6355 385.246C43.671 385.246 43.7183 385.257 43.7657 385.305L45.2454 386.808C45.6361 387.199 46.2635 387.27 46.7252 386.95C47.9918 386.098 49.4005 385.518 50.8921 385.222C51.4367 385.115 51.8392 384.63 51.8392 384.074V381.978C51.8392 381.872 51.922 381.789 52.0286 381.789H54.3133C54.4198 381.789 54.5027 381.872 54.5027 381.978V384.074C54.5027 384.63 54.8934 385.115 55.4497 385.222C56.9413 385.518 58.35 386.098 59.6167 386.95C60.0784 387.258 60.7058 387.199 61.0964 386.808L62.5762 385.329C62.6235 385.281 62.6709 385.269 62.7064 385.269C62.7419 385.269 62.7893 385.281 62.8366 385.329L64.4466 386.938C64.4939 386.986 64.5058 387.033 64.5058 387.069C64.5058 387.104 64.4939 387.152 64.4466 387.199L62.9668 388.679C62.5762 389.069 62.5052 389.697 62.8248 390.158C63.6771 391.425 64.2572 392.834 64.5531 394.325C64.6597 394.87 65.145 395.272 65.7014 395.272H67.7967C67.9033 395.272 67.9861 395.355 67.9861 395.462V397.747C67.9861 397.853 67.9033 397.936 67.7967 397.936H65.7014C65.145 397.936 64.6597 398.327 64.5531 398.883C64.2572 400.375 63.6771 401.783 62.8248 403.05C62.517 403.512 62.5762 404.139 62.9668 404.53L64.4466 406.009C64.4939 406.057 64.5058 406.104 64.5058 406.14C64.5058 406.175 64.4939 406.222 64.4466 406.27L62.8366 407.88C62.7893 407.927 62.7419 407.939 62.7064 407.939C62.6709 407.939 62.6235 407.927 62.5762 407.88L61.0964 406.4C60.7058 406.009 60.0784 405.938 59.6167 406.258C58.35 407.11 56.9413 407.69 55.4497 407.986C54.9052 408.093 54.5027 408.578 54.5027 409.135V411.23C54.5027 411.336 54.4198 411.419 54.3133 411.419H52.0286C51.922 411.419 51.8392 411.336 51.8392 411.23V409.135C51.8392 408.578 51.4485 408.093 50.8921 407.986C49.4005 407.667 47.9918 407.087 46.7252 406.234Z" fill="#FF8417"/>
<path d="M60.1137 396.598C60.1137 392.763 56.9885 389.638 53.153 389.638C49.3175 389.638 46.2041 392.763 46.2041 396.598C46.2041 400.434 49.3293 403.559 53.1648 403.559C57.0003 403.559 60.1137 400.434 60.1137 396.598ZM48.548 396.598C48.548 394.053 50.6197 391.982 53.1648 391.982C55.71 391.982 57.7816 394.053 57.7816 396.598C57.7816 399.144 55.71 401.215 53.1648 401.215C50.6197 401.215 48.548 399.132 48.548 396.598Z" fill="#FF8417"/>
</svg>
