<svg width="99" height="97" viewBox="0 0 99 97" fill="none" xmlns="http://www.w3.org/2000/svg">
<rect width="99" height="96.0202" rx="5" fill="black"/>
<g filter="url(#filter0_d)">
<path d="M19.8594 35.6045H34.5078V38.5342H19.8594C19.0488 38.5342 18.3555 38.8223 17.7793 39.3984C17.2129 39.9648 16.9297 40.6533 16.9297 41.4639C16.9297 42.2744 17.2129 42.9678 17.7793 43.5439C18.3555 44.1104 19.0488 44.3936 19.8594 44.3936H28.6484C30.2695 44.3936 31.6514 44.9648 32.7939 46.1074C33.9365 47.25 34.5078 48.6318 34.5078 50.2529C34.5078 51.874 33.9365 53.2559 32.7939 54.3984C31.6514 55.541 30.2695 56.1123 28.6484 56.1123H14V53.1826H28.6484C29.459 53.1826 30.1475 52.8994 30.7139 52.333C31.29 51.7568 31.5781 51.0635 31.5781 50.2529C31.5781 49.4424 31.29 48.7539 30.7139 48.1875C30.1475 47.6113 29.459 47.3232 28.6484 47.3232H19.8594C18.2383 47.3232 16.8564 46.752 15.7139 45.6094C14.5713 44.4668 14 43.085 14 41.4639C14 39.8428 14.5713 38.4609 15.7139 37.3184C16.8564 36.1758 18.2383 35.6045 19.8594 35.6045ZM57.9453 45.8584V56.1123H55.0156V45.8584C55.0156 43.8369 54.2979 42.1133 52.8623 40.6875C51.4365 39.252 49.7129 38.5342 47.6914 38.5342C45.6699 38.5342 43.9414 39.252 42.5059 40.6875C41.0801 42.1133 40.3672 43.8369 40.3672 45.8584V48.7881H52.0859V51.7178H40.3672V56.1123H37.4375V45.8584C37.4375 43.0264 38.4385 40.6094 40.4404 38.6074C42.4424 36.6055 44.8594 35.6045 47.6914 35.6045C50.5234 35.6045 52.9404 36.6055 54.9424 38.6074C56.9443 40.6094 57.9453 43.0264 57.9453 45.8584ZM60.875 37.0693V35.6045H63.8047V37.0693C63.8047 39.0908 64.5176 40.8193 65.9434 42.2549C67.3789 43.6807 69.1074 44.3936 71.1289 44.3936C73.1504 44.3936 74.874 43.6807 76.2998 42.2549C77.7354 40.8193 78.4531 39.0908 78.4531 37.0693V35.6045H81.3828V37.0693C81.3828 39.9014 80.3818 42.3184 78.3799 44.3203C76.7295 45.9707 74.8008 46.9424 72.5938 47.2354V56.1123H69.6641V47.2354C67.457 46.9424 65.5283 45.9707 63.8779 44.3203C61.876 42.3184 60.875 39.9014 60.875 37.0693Z" fill="white"/>
</g>
<defs>
<filter id="filter0_d" x="0" y="21.6045" width="97.3828" height="50.5078" filterUnits="userSpaceOnUse" color-interpolation-filters="sRGB">
<feFlood flood-opacity="0" result="BackgroundImageFix"/>
<feColorMatrix in="SourceAlpha" type="matrix" values="0 0 0 0 0 0 0 0 0 0 0 0 0 0 0 0 0 0 127 0"/>
<feOffset dx="1" dy="1"/>
<feGaussianBlur stdDeviation="7.5"/>
<feColorMatrix type="matrix" values="0 0 0 0 1 0 0 0 0 1 0 0 0 0 1 0 0 0 0.5 0"/>
<feBlend mode="normal" in2="BackgroundImageFix" result="effect1_dropShadow"/>
<feBlend mode="normal" in="SourceGraphic" in2="effect1_dropShadow" result="shape"/>
</filter>
</defs>
</svg>
