<svg width="74" height="69" viewBox="0 0 74 69" fill="none" xmlns="http://www.w3.org/2000/svg">
<path d="M23.5838 18.1964L30.3007 48.4347C30.4112 48.9302 30.8429 49.2868 31.3514 49.3022C31.8745 49.3022 32.3109 48.9724 32.4459 48.5007L38.9626 25.6994L41.5763 33.5514C41.7274 34.0031 42.1508 34.3068 42.6278 34.3068H49.9529C50.5634 34.3068 51.0596 33.8106 51.0596 33.2001C51.0596 32.9033 50.9446 32.6249 50.736 32.4171C50.5274 32.2085 50.249 32.0927 49.9529 32.0927H43.4262L39.9312 21.6032C39.7725 21.1284 39.3338 20.7871 38.9473 20.8393L38.8575 20.847C38.3674 20.8585 37.9495 21.1798 37.8175 21.6469L31.5171 43.6919L24.9682 14.2175C24.8608 13.742 24.4612 13.3938 23.9742 13.3547C23.4933 13.3125 23.037 13.5993 22.8598 14.0442L15.6375 32.0919H1.39458C0.784089 32.0919 0.287109 32.5881 0.287109 33.1986C0.287109 33.8099 0.784089 34.3061 1.39458 34.3061H16.3883H16.3891C16.8385 34.3061 17.2504 34.0277 17.4145 33.6128L23.5838 18.1964Z" fill="#6F6F6F"/>
<path d="M31.3519 49.5888C30.7039 49.5704 30.1593 49.1209 30.0205 48.4959L23.5053 19.1671L17.6827 33.7199C17.4756 34.2422 16.9564 34.5942 16.3904 34.5942H1.39507C0.625827 34.5942 0 33.9684 0 33.1992C0 32.4299 0.625827 31.8048 1.39507 31.8048H15.4432L22.5927 13.9373C22.8174 13.3736 23.3979 13.0208 23.9992 13.0676C24.6105 13.1167 25.1136 13.5539 25.2486 14.1544L31.5521 42.5229L37.5419 21.5669C37.7076 20.9787 38.2345 20.5729 38.8519 20.5591L38.9247 20.5522C39.4386 20.4924 40.0023 20.9043 40.2055 21.5117L43.6353 31.8048H49.9542C50.3269 31.8048 50.6774 31.9498 50.9412 32.2136C51.2043 32.4752 51.3492 32.8264 51.3492 33.1999C51.3492 33.9692 50.7234 34.5942 49.9549 34.5942H42.6299C42.0286 34.5942 41.4963 34.2115 41.3053 33.6424L38.9853 26.6725L32.724 48.5795C32.5507 49.183 31.9992 49.5888 31.3519 49.5888ZM23.6633 17.2245L30.5819 48.3716C30.6632 48.739 30.983 49.002 31.3604 49.0135C31.74 49.0135 32.0683 48.775 32.1703 48.4215L38.9424 24.7252L41.8506 33.4607C41.9626 33.7951 42.2755 34.0198 42.6291 34.0198H49.9542C50.4059 34.0198 50.7733 33.6524 50.7733 33.2007C50.7733 32.9806 50.6881 32.7743 50.534 32.6209C50.3791 32.466 50.1735 32.3808 49.9542 32.3808H43.2204L39.6595 21.6927C39.5352 21.3207 39.2031 21.0899 38.9869 21.1236L38.8826 21.1328C38.5022 21.142 38.1931 21.379 38.0957 21.7241L31.4831 44.8605L24.6879 14.2794C24.6082 13.9266 24.3129 13.6697 23.9517 13.6413C23.6012 13.6145 23.2599 13.8192 23.1272 14.1505L15.8328 32.3801H1.39507C0.943342 32.3801 0.575208 32.7474 0.575208 33.1992C0.575208 33.6516 0.942575 34.019 1.39507 34.019H16.3888C16.7217 34.019 17.0269 33.8127 17.1481 33.5075L23.6633 17.2245Z" fill="#6F6F6F"/>
<path d="M11.0847 41.8064L37.0059 67.7292L67.3616 37.3735C75.8302 28.9033 75.8302 15.1206 67.3616 6.65045C63.2577 2.54653 57.8024 0.287109 51.9997 0.287109C46.704 0.287109 41.5608 2.29267 37.519 5.93566L37.0059 6.39812L36.4929 5.93566C32.4495 2.29267 27.3064 0.287109 22.0122 0.287109C16.2102 0.287109 10.7542 2.54653 6.65103 6.65045C1.35528 11.9462 -0.766855 19.4446 0.91352 26.8127C2.04093 26.8127 2.93595 25.8233 2.77566 24.7066C1.90901 18.6669 3.86932 12.5636 8.21637 8.21732C11.9 4.53215 16.7992 2.50358 22.0122 2.50358C26.6483 2.50358 31.1802 4.2292 34.7711 7.36141L37.0059 9.45056L39.2224 7.37905C42.8347 4.22844 47.3658 2.50281 52.0005 2.50281C57.2111 2.50281 62.1103 4.53215 65.7963 8.21655C69.4753 11.8956 71.5016 16.7948 71.5016 22.0116C71.5016 27.2291 69.4753 32.1276 65.7963 35.8066L37.0059 64.5962L12.002 39.5915C10.8462 39.5915 10.2672 40.9896 11.0847 41.8064Z" fill="#6F6F6F"/>
<path d="M37.0065 68.1361L10.882 42.0109C10.4196 41.5485 10.2884 40.8866 10.5384 40.283C10.7885 39.6802 11.3499 39.3051 12.0033 39.3051H12.1222L12.2065 39.3887L37.0065 64.1902L65.5928 35.6039C69.2174 31.9793 71.2137 27.1529 71.2145 22.0121C71.2145 16.872 69.2181 12.0449 65.5928 8.42029C61.9621 4.78957 57.1349 2.79014 52.0002 2.79014C47.4354 2.79014 42.9649 4.49736 39.4116 7.59582L37.0065 9.8445L34.5752 7.57204C31.0435 4.49199 26.5791 2.79168 22.0127 2.79168C16.8765 2.79168 12.0493 4.79034 8.42013 8.42105C4.14595 12.696 2.19177 18.6168 3.06072 24.6665C3.14738 25.2701 2.96562 25.8828 2.5622 26.3484C2.14729 26.827 1.54677 27.1008 0.914041 27.1008H0.683957L0.633339 26.8768C-1.06621 19.4252 1.10808 11.7879 6.44831 6.44694C10.6052 2.2901 16.1333 0 22.0127 0C27.379 0 32.5904 2.0324 36.6859 5.72294L37.0065 6.01131L37.327 5.72294C41.4218 2.03317 46.6324 0 52.0002 0C57.8796 0 63.4078 2.28933 67.5646 6.44694C76.1459 15.029 76.1459 28.9943 67.5646 37.5772L37.0065 68.1361ZM11.2885 41.6037L37.0065 67.3224L67.1581 37.17C75.5147 28.8126 75.5147 15.2123 67.1581 6.85495C63.1094 2.80472 57.7262 0.575208 52.0002 0.575208C46.775 0.575208 41.7009 2.55469 37.712 6.15013L37.0065 6.78593L36.3009 6.15013C32.3105 2.55469 27.2363 0.575208 22.0127 0.575208C16.2867 0.575208 10.9035 2.80472 6.85479 6.85495C1.71243 11.9973 -0.414308 19.3285 1.14106 26.5094C1.52146 26.4558 1.87272 26.2663 2.12811 25.9718C2.42646 25.6275 2.55607 25.1926 2.49241 24.7485C1.59816 18.5179 3.61062 12.4184 8.01441 8.01457C11.7525 4.27572 16.7238 2.21647 22.0135 2.21647C26.7187 2.21647 31.3173 3.96664 34.9618 7.14562L37.0072 9.05685L39.0274 7.16863C42.6926 3.97201 47.2973 2.21494 52.0018 2.21494C57.2898 2.21494 62.2612 4.27418 66.0008 8.01304C69.7343 11.7465 71.7905 16.7186 71.7905 22.0121C71.7905 27.3063 69.7335 32.2776 66.0008 36.0111L37.0065 65.0032L11.889 39.8857C11.4572 39.9302 11.185 40.2247 11.0692 40.5031C10.9449 40.8045 10.9365 41.2517 11.2885 41.6037Z" fill="#6F6F6F"/>
<path d="M55.5387 34.4875C56.2795 34.4875 56.88 33.8869 56.88 33.1461C56.88 32.4052 56.2795 31.8047 55.5387 31.8047C54.7978 31.8047 54.1973 32.4052 54.1973 33.1461C54.1973 33.8869 54.7978 34.4875 55.5387 34.4875Z" fill="#6F6F6F"/>
<path d="M55.5391 34.7756C54.6411 34.7756 53.9102 34.0447 53.9102 33.1466C53.9102 32.2485 54.6411 31.5176 55.5391 31.5176C56.4372 31.5176 57.1681 32.2485 57.1681 33.1466C57.1681 34.0447 56.438 34.7756 55.5391 34.7756ZM55.5391 32.0928C54.9586 32.0928 54.4854 32.5652 54.4854 33.1466C54.4854 33.7279 54.9578 34.2004 55.5391 34.2004C56.1205 34.2004 56.5929 33.7279 56.5929 33.1466C56.5929 32.5652 56.1205 32.0928 55.5391 32.0928Z" fill="#6F6F6F"/>
<path d="M60.398 34.4875C61.1389 34.4875 61.7394 33.8869 61.7394 33.1461C61.7394 32.4052 61.1389 31.8047 60.398 31.8047C59.6572 31.8047 59.0566 32.4052 59.0566 33.1461C59.0566 33.8869 59.6572 34.4875 60.398 34.4875Z" fill="#6F6F6F"/>
<path d="M60.3985 34.7756C59.5004 34.7756 58.7695 34.0447 58.7695 33.1466C58.7695 32.2485 59.5004 31.5176 60.3985 31.5176C61.2966 31.5176 62.0275 32.2485 62.0275 33.1466C62.0275 34.0447 61.2966 34.7756 60.3985 34.7756ZM60.3985 32.0928C59.8172 32.0928 59.3447 32.5652 59.3447 33.1466C59.3447 33.7279 59.8172 34.2004 60.3985 34.2004C60.9791 34.2004 61.4523 33.7279 61.4523 33.1466C61.4523 32.5652 60.9791 32.0928 60.3985 32.0928Z" fill="#6F6F6F"/>
</svg>
