<svg width="85" height="61" viewBox="0 0 85 61" fill="none" xmlns="http://www.w3.org/2000/svg">
<path d="M84.1469 20.3163L43.012 0.230989C42.6858 0.0714412 42.3144 0.0714412 41.9882 0.230989L25.311 8.37413C24.679 8.68259 24.3954 9.49186 24.6782 10.1832C24.9609 10.8737 25.7028 11.1831 26.3357 10.8746L42.5005 2.98053L57.2986 10.2063V20.2941C49.4453 17.1581 42.8329 16.9197 42.5351 16.9108C42.5121 16.9099 42.4881 16.9099 42.4651 16.9108C42.146 16.9197 34.5621 17.1936 25.9731 21.0236C22.5473 22.5508 19.4175 24.4521 16.6706 26.6743C16.465 26.8409 16.3152 27.0696 16.2336 27.3266L4.43773 21.5661L20.9749 13.4903C21.6077 13.1818 21.8905 12.3726 21.6077 11.6812C21.325 10.9907 20.5831 10.6814 19.9511 10.9898L0.853226 20.3163C0.40206 20.537 0.111328 21.0272 0.111328 21.5661C0.111328 22.1068 0.40206 22.5961 0.853226 22.8159L16.1636 30.2933V32.98C16.1636 33.736 16.7256 34.3494 17.4178 34.3494C18.111 34.3494 18.6721 33.736 18.6721 32.98V29.4345C18.6721 29.4336 18.6721 29.4327 18.6721 29.4318V28.4718C21.1273 26.5573 23.8999 24.9059 26.9225 23.5595C34.7828 20.0539 41.9421 19.6746 42.5014 19.6497C43.0492 19.6728 49.736 20.022 57.2986 23.2201V36.8304C55.4647 37.4225 54.1218 39.2786 54.1218 41.4706C54.1218 43.4853 55.2546 45.2155 56.8625 45.9423L55.9859 48.4632C50.2625 49.5393 45.7314 51.0195 42.5005 52.8738C35.0594 48.605 22.5978 47.3987 18.6729 47.115V43.2735C18.6729 42.5174 18.111 41.904 17.4187 41.904C16.7256 41.904 16.1645 42.5174 16.1645 43.2735V48.4091C16.1645 49.1413 16.6928 49.7449 17.3638 49.7777C17.5277 49.7857 33.8273 50.6171 41.8801 55.6251C42.0724 55.7448 42.286 55.8042 42.5014 55.8042C42.7159 55.8042 42.9295 55.7439 43.1228 55.6242C45.8307 53.9392 49.8903 52.5095 54.9461 51.4512L54.2051 53.5829C54.058 54.0039 54.1103 54.4764 54.3452 54.8469C54.5792 55.2174 54.9656 55.439 55.3778 55.439H61.7323C62.1453 55.439 62.53 55.2174 62.7649 54.8469C62.9989 54.4764 63.0512 54.0039 62.9049 53.5829L61.7712 50.3246C65.1838 49.8982 67.6116 49.7777 67.64 49.7768C68.3109 49.7449 68.8401 49.1422 68.8401 48.4082V43.2726C68.8401 42.5165 68.2781 41.9031 67.5859 41.9031C66.8927 41.9031 66.3317 42.5165 66.3317 43.2726V47.1168C65.1608 47.2028 63.2152 47.3729 60.853 47.6849L60.2467 45.9423C61.8537 45.2155 62.9874 43.4853 62.9874 41.4706C62.9874 39.2777 61.6445 37.4216 59.8106 36.8304V24.3812C62.1666 25.5619 64.3542 26.9296 66.3326 28.4718V29.4318V29.4345V36.8517C66.3326 37.6077 66.8936 38.2211 67.5868 38.2211C68.2799 38.2211 68.841 37.6077 68.841 36.8517V30.2933L84.1478 22.8168C84.599 22.5961 84.8897 22.1068 84.8897 21.567C84.8897 21.0272 84.599 20.537 84.1469 20.3163ZM57.194 52.7001L58.5528 48.7947L59.9116 52.7001H57.194ZM60.4754 41.4706C60.4754 42.6282 59.6129 43.5695 58.5528 43.5695C57.4927 43.5695 56.6303 42.6282 56.6303 41.4706C56.6303 40.3121 57.4927 39.3707 58.5528 39.3707C59.6138 39.3707 60.4754 40.3121 60.4754 41.4706ZM68.7665 27.3275C68.685 27.0705 68.5352 26.8418 68.3296 26.6752C65.7945 24.6232 62.928 22.8487 59.807 21.3861V11.4321L80.5633 21.567L68.7665 27.3275Z" fill="#28B7B0"/>
<path d="M42.5 55.9151C42.2616 55.9151 42.0267 55.8477 41.821 55.7192C33.7878 50.7227 17.521 49.8957 17.3579 49.8877C16.6258 49.8532 16.0532 49.2034 16.0532 48.4093V43.2745C16.0532 42.4581 16.6657 41.7942 17.4182 41.7942C18.1707 41.7942 18.7832 42.4581 18.7832 43.2745V47.0132C22.6062 47.2942 35.066 48.5112 42.5 52.7481C45.7184 50.9124 50.2265 49.4392 55.902 48.3676L56.7246 46.0019C55.0724 45.2085 54.0105 43.442 54.0105 41.4725C54.0105 39.3248 55.3126 37.396 57.1873 36.7525V23.2946C49.7195 20.1507 43.2144 19.7917 42.4956 19.7616C41.7324 19.7961 34.7274 20.2003 26.9662 23.6616C23.9747 24.9947 21.2208 26.6319 18.7823 28.5269V32.9801C18.7823 33.7964 18.1698 34.4612 17.4173 34.4612C16.6648 34.4612 16.0523 33.7964 16.0523 32.9801V30.3626L0.803944 22.9162C0.31555 22.6777 0 22.1486 0 21.5671C0 20.9856 0.31555 20.4556 0.803944 20.218L19.9018 10.8925C20.2227 10.7356 20.5826 10.7205 20.9149 10.8455C21.273 10.982 21.5558 11.2656 21.7091 11.6415C22.0132 12.3833 21.7056 13.2573 21.0231 13.5915L4.68893 21.5662L16.1711 27.1734C16.2659 26.9403 16.413 26.7409 16.601 26.5884C19.3558 24.3583 22.4936 22.4526 25.9274 20.9218C34.5971 17.0554 42.1437 16.8081 42.461 16.8002C42.4858 16.8002 42.5124 16.8002 42.5381 16.8002C42.8138 16.8081 49.3499 17.0324 57.1864 20.1303V10.2755L42.5 3.10387L26.3839 10.9731C26.0621 11.13 25.7032 11.1451 25.3699 11.0201C25.0118 10.8845 24.729 10.6008 24.5757 10.225C24.2717 9.48224 24.5801 8.60738 25.2626 8.27499L41.9398 0.130962C42.2952 -0.0436541 42.7039 -0.0436541 43.0611 0.130962L84.1952 20.2171C84.6836 20.4556 85 20.9848 85 21.5662C85 22.1477 84.6844 22.6777 84.1961 22.9153L68.9477 30.3617V36.8509C68.9477 37.6673 68.3352 38.3311 67.5827 38.3311C66.8302 38.3311 66.2177 37.6673 66.2177 36.8509V28.5252C64.3164 27.0467 62.198 25.7136 59.9182 24.5595V36.7507C61.7929 37.3951 63.095 39.323 63.095 41.4707C63.095 43.4411 62.0331 45.2077 60.3809 46.0001L60.9242 47.5637C63.1703 47.2694 65.0237 47.1027 66.2177 47.0141V43.2727C66.2177 42.4563 66.8302 41.7924 67.5827 41.7924C68.3352 41.7924 68.9477 42.4563 68.9477 43.2727V48.4084C68.9477 49.2026 68.3742 49.8523 67.6421 49.8877C67.6199 49.8886 65.2338 50.0083 61.9179 50.4178L63.0072 53.5467C63.1641 53.9987 63.1083 54.5075 62.8565 54.9064C62.6013 55.3088 62.1802 55.5499 61.7299 55.5499H55.3755C54.9252 55.5499 54.5051 55.3097 54.2498 54.9064C53.9972 54.5075 53.9413 53.9987 54.0991 53.5467L54.7763 51.6002C49.8303 52.6506 45.8239 54.0732 43.1798 55.7183C42.9733 55.8468 42.7384 55.9151 42.5 55.9151ZM17.4182 42.0158C16.788 42.0158 16.2748 42.5804 16.2748 43.2745V48.4101C16.2748 49.0856 16.7552 49.6378 17.3686 49.667C17.5325 49.675 33.8569 50.5055 41.938 55.5313C42.2802 55.744 42.7207 55.7449 43.0629 55.5304C45.7619 53.8498 49.8631 52.4033 54.9226 51.3432L55.114 51.3024L54.3083 53.6194C54.1727 54.0076 54.2206 54.4455 54.4377 54.7885C54.6513 55.1262 55.0023 55.3274 55.3764 55.3274H61.7308C62.104 55.3274 62.455 55.1253 62.6695 54.7885C62.8858 54.4446 62.9336 54.0085 62.7989 53.6194L61.62 50.2325L61.7556 50.2148C65.1824 49.7867 67.6146 49.667 67.635 49.6661C68.2466 49.6369 68.727 49.0847 68.727 48.4084V43.2727C68.727 42.5787 68.2138 42.014 67.5836 42.014C66.9534 42.014 66.4402 42.5787 66.4402 43.2727V47.2197L66.3373 47.2277C65.1354 47.3155 63.2111 47.4848 60.8648 47.795L60.7753 47.8074L60.1061 45.884L60.1983 45.8414C61.8239 45.1066 62.8743 43.3906 62.8743 41.4707C62.8743 39.3886 61.5996 37.5245 59.7737 36.936L59.6975 36.9112V24.2023L59.8579 24.283C62.229 25.4707 64.4298 26.8499 66.3976 28.3851L66.4402 28.4179V36.8527C66.4402 37.5467 66.9534 38.1113 67.5836 38.1113C68.2138 38.1113 68.727 37.5467 68.727 36.8527V30.2243L68.789 30.1942L84.0994 22.7167C84.5125 22.5155 84.7793 22.0644 84.7793 21.5662C84.7793 21.0681 84.5125 20.6178 84.0994 20.4157L42.9636 0.32951C42.6684 0.18503 42.3307 0.18503 42.0364 0.32951L25.3592 8.47354C24.7796 8.7563 24.5198 9.5044 24.7804 10.1417C24.9107 10.4599 25.1483 10.6992 25.4488 10.8136C25.7235 10.9191 26.0205 10.904 26.2864 10.7746L42.5 2.85834L42.5487 2.88139L57.4097 10.1373V20.4582L57.2582 20.398C49.3907 17.2558 42.8093 17.0306 42.5328 17.0226C42.5115 17.0209 42.4903 17.0209 42.4699 17.0226C42.1543 17.0315 34.6502 17.2762 26.0196 21.1257C22.6035 22.6485 19.4817 24.5436 16.7419 26.7613C16.5566 26.912 16.4175 27.1185 16.3404 27.3613L16.3014 27.4837L4.18459 21.5662L20.9265 13.3912C21.5062 13.1084 21.7659 12.3594 21.5044 11.7239C21.3741 11.4048 21.1365 11.1655 20.8361 11.0511C20.5613 10.9465 20.2643 10.9589 19.9993 11.0892L0.901445 20.4166C0.488394 20.6178 0.221594 21.069 0.221594 21.5671C0.221594 22.0652 0.488394 22.5164 0.901445 22.7176L16.2739 30.2252V32.981C16.2739 33.675 16.7871 34.2405 17.4173 34.2405C18.0475 34.2405 18.5607 33.675 18.5607 32.981V28.4188L18.6033 28.386C21.0665 26.4652 23.8497 24.8086 26.8758 23.4595C34.6733 19.9814 41.7173 19.5745 42.4947 19.54C43.2295 19.571 49.8091 19.9344 57.3406 23.1191L57.408 23.1475V36.9112L57.3317 36.936C55.5058 37.5245 54.2312 39.3895 54.2312 41.4707C54.2312 43.3906 55.2816 45.1066 56.9072 45.8414L56.9994 45.884L56.0678 48.5608L56.0048 48.5732C50.2921 49.6475 45.7672 51.1269 42.5541 52.9714L42.5 53.0025L42.445 52.9706C34.9906 48.6947 22.358 47.4919 18.6644 47.2268L18.5616 47.2188V43.2745C18.5607 42.5796 18.0484 42.0158 17.4182 42.0158ZM60.0671 52.811H57.0384L58.5523 48.4571L60.0671 52.811ZM57.3495 52.5894H59.7551L58.5523 49.1325L57.3495 52.5894ZM58.5523 43.6813C57.431 43.6813 56.5198 42.6903 56.5198 41.4716C56.5198 40.2528 57.4319 39.261 58.5523 39.261C59.6744 39.261 60.5865 40.2528 60.5865 41.4716C60.5865 42.6903 59.6736 43.6813 58.5523 43.6813ZM58.5523 39.4817C57.5533 39.4817 56.7414 40.3742 56.7414 41.4707C56.7414 42.5671 57.5542 43.4588 58.5523 43.4588C59.5512 43.4588 60.3649 42.5671 60.3649 41.4707C60.3649 40.3742 59.5512 39.4817 58.5523 39.4817ZM68.6995 27.4828L68.6605 27.3605C68.5834 27.1185 68.4443 26.9111 68.259 26.7595C65.7435 24.7244 62.884 22.9499 59.7595 21.4856L59.6957 21.4554V11.2532L59.8553 11.3312L80.8154 21.5662L68.6995 27.4828ZM59.9173 21.3154C63.0329 22.7814 65.8862 24.5551 68.3982 26.5875C68.5861 26.7409 68.7332 26.9403 68.8281 27.1734L80.3102 21.5662L59.9173 11.6087V21.3154Z" fill="#28B7B0"/>
<path d="M17.3862 39.5566C18.2424 39.5566 18.9365 38.8625 18.9365 38.0063C18.9365 37.1501 18.2424 36.4561 17.3862 36.4561C16.53 36.4561 15.8359 37.1501 15.8359 38.0063C15.8359 38.8625 16.53 39.5566 17.3862 39.5566Z" fill="#28B7B0"/>
<path d="M58.7417 60.7539C59.5979 60.7539 60.292 60.0598 60.292 59.2036C60.292 58.3474 59.5979 57.6533 58.7417 57.6533C57.8855 57.6533 57.1914 58.3474 57.1914 59.2036C57.1914 60.0598 57.8855 60.7539 58.7417 60.7539Z" fill="#28B7B0"/>
</svg>
