<svg width="69" height="75" viewBox="0 0 69 75" fill="none" xmlns="http://www.w3.org/2000/svg">
<path d="M38.5951 65.1219C39.1115 65.1219 39.5301 64.7033 39.5301 64.1869C39.5301 63.6705 39.1115 63.252 38.5951 63.252C38.0787 63.252 37.6602 63.6705 37.6602 64.1869C37.6602 64.7033 38.0787 65.1219 38.5951 65.1219Z" fill="#39B2D9"/>
<path d="M34.1537 50.8494C36.7739 50.8494 38.907 48.7177 38.907 46.0961C38.907 43.4759 36.7753 41.3428 34.1537 41.3428C31.5335 41.3428 29.4004 43.4744 29.4004 46.0961C29.4004 48.7163 31.5335 50.8494 34.1537 50.8494ZM34.1537 43.5239C35.5714 43.5239 36.7259 44.6769 36.7259 46.0961C36.7259 47.5138 35.5728 48.6683 34.1537 48.6683C32.736 48.6683 31.5815 47.5152 31.5815 46.0961C31.5815 44.6784 32.736 43.5239 34.1537 43.5239Z" fill="#39B2D9"/>
<path d="M55.236 15.7546C59.5792 15.7546 63.1126 12.2213 63.1126 7.87805C63.114 3.53335 59.5792 0 55.236 0C50.8927 0 47.3594 3.53334 47.3594 7.8766C47.3594 12.2198 50.8927 15.7546 55.236 15.7546ZM55.236 2.18108C58.3767 2.18108 60.9315 4.73585 60.9315 7.8766C60.9315 11.0173 58.3767 13.5721 55.236 13.5721C52.0952 13.5721 49.5405 11.0173 49.5405 7.8766C49.5405 4.73585 52.0952 2.18108 55.236 2.18108Z" fill="#39B2D9"/>
<path d="M66.9085 27.8782C66.3066 27.8782 65.818 28.3668 65.818 28.9687V43.8917C65.818 44.2799 65.5025 44.5954 65.1142 44.5954H62.4533V25.3452C62.4533 24.7433 61.9648 24.2547 61.3628 24.2547C60.7608 24.2547 60.2722 24.7433 60.2722 25.3452V71.5623C60.2722 71.9505 59.9567 72.266 59.5685 72.266H57.0341C56.6458 72.266 56.3303 71.9505 56.3303 71.5623V54.2125C56.3303 53.6105 55.8417 53.122 55.2398 53.122C54.6378 53.122 54.1492 53.6105 54.1492 54.2125V71.5623C54.1492 71.9505 53.8337 72.266 53.4455 72.266H50.9111C50.5228 72.266 50.2073 71.9505 50.2073 71.5623V25.3452C50.2073 24.7433 49.7187 24.2547 49.1168 24.2547C48.5148 24.2547 48.0262 24.7433 48.0262 25.3452V44.5954H45.3653C44.9771 44.5954 44.6615 44.2799 44.6615 43.8917V25.3423C44.6615 21.761 47.5755 18.8471 51.1568 18.8471H59.3257C62.907 18.8471 65.8209 21.761 65.8209 25.3423C65.8209 25.9443 66.3095 26.4329 66.9114 26.4329C67.5134 26.4329 68.002 25.9443 68.002 25.3423C68.002 20.5585 64.1095 16.666 59.3257 16.666H51.1568C46.373 16.666 42.4805 20.5585 42.4805 25.3423V43.8931C42.4819 45.4839 43.776 46.778 45.3653 46.778H48.0262V71.5623C48.0262 73.153 49.3203 74.4471 50.9111 74.4471H53.4455C54.1245 74.4471 54.7468 74.2101 55.2398 73.8175C55.7327 74.2101 56.3565 74.4471 57.0355 74.4471H59.5699C61.1607 74.4471 62.4548 73.153 62.4548 71.5623V46.7765H65.1157C66.7064 46.7765 68.0005 45.4824 68.0005 43.8902V28.9687C68.0005 28.3668 67.512 27.8782 66.9085 27.8782Z" fill="#39B2D9"/>
<path d="M11.3375 22.4212C15.6808 22.4212 19.2156 18.8878 19.2156 14.5446C19.2156 10.2013 15.6822 6.66797 11.3375 6.66797C6.99428 6.66797 3.46094 10.2013 3.46094 14.5446C3.45948 18.8864 6.99283 22.4212 11.3375 22.4212ZM11.3375 8.84759C14.4783 8.84759 17.0331 11.4024 17.0331 14.5431C17.0331 17.6839 14.4783 20.2386 11.3375 20.2386C8.19678 20.2386 5.64202 17.6839 5.64202 14.5431C5.64202 11.4024 8.19678 8.84759 11.3375 8.84759Z" fill="#39B2D9"/>
<path d="M14.9244 23.4453H7.75155C3.47809 23.4453 0 26.9219 0 31.1969V47.4866C0 48.9566 1.19668 50.1519 2.66673 50.1519H2.70017L1.94552 57.0223C1.91208 57.3305 2.01095 57.6388 2.21743 57.8685C2.4239 58.0997 2.71908 58.2306 3.03024 58.2306H4.87253V71.7794C4.87253 73.2495 6.06921 74.4462 7.53926 74.4462H9.76541C10.3558 74.4462 10.8996 74.2513 11.3416 73.9256C11.7836 74.2513 12.3274 74.4462 12.9178 74.4462H15.1439C16.614 74.4462 17.8107 73.2495 17.8107 71.7794V65.7568C17.8107 65.1548 17.3221 64.6662 16.7201 64.6662C16.1182 64.6662 15.6296 65.1548 15.6296 65.7568V71.7794C15.6296 72.047 15.4115 72.2651 15.1439 72.2651H12.9149C12.6473 72.2651 12.4292 72.047 12.4292 71.7794V60.131C12.4292 59.5291 11.9407 59.0405 11.3387 59.0405C10.7367 59.0405 10.2482 59.5291 10.2482 60.131V71.7794C10.2482 72.047 10.03 72.2651 9.7625 72.2651H7.53635C7.2688 72.2651 7.05069 72.047 7.05069 71.7794V58.2306H15.6252V62.267C15.6252 62.869 16.1138 63.3576 16.7158 63.3576C17.3178 63.3576 17.8063 62.869 17.8063 62.267V58.2306H19.6471C19.9569 58.2306 20.252 58.0983 20.46 57.8685C20.6664 57.6373 20.7653 57.3305 20.7319 57.0223L19.9772 50.1519H20.0107C21.4807 50.1519 22.6774 48.9552 22.6774 47.4851V31.1969C22.6759 26.9219 19.1993 23.4453 14.9244 23.4453ZM20.4949 47.4851C20.4949 47.7527 20.2767 47.9708 20.0092 47.9708H19.7358L17.7394 29.801C17.674 29.2019 17.1345 28.7715 16.5369 28.8355C15.9379 28.9009 15.506 29.4404 15.5714 30.038L18.4301 56.0495H17.4035H16.7143H5.96016H5.06446H4.24583L7.10449 30.038C7.16993 29.4389 6.73807 28.9009 6.139 28.8355C5.53848 28.7715 5.00194 29.2019 4.93505 29.801L2.94009 47.9693H2.66673C2.39918 47.9693 2.18108 47.7512 2.18108 47.4851V31.1969C2.18108 28.1244 4.68059 25.6264 7.75155 25.6264H14.9244C17.9953 25.6264 20.4949 28.1259 20.4949 31.1969V47.4851Z" fill="#39B2D9"/>
<path d="M42.415 47.222C41.6342 47.2468 40.9101 47.5739 40.3764 48.1425L36.3094 52.4741H32.0985L28.0315 48.1425C26.9279 46.9676 25.0754 46.9094 23.8991 48.0131C22.7242 49.1167 22.6661 50.9691 23.7697 52.1455L28.4852 57.1678V71.5992C28.4852 73.171 29.7633 74.4492 31.3351 74.4492H37.0728C38.6446 74.4492 39.9228 73.171 39.9228 71.5992V66.6467C39.9228 66.0447 39.4458 65.5416 38.8424 65.5416C38.239 65.5416 37.7417 66.0811 37.7417 66.6831V71.5992C37.7417 71.9685 37.4421 72.2681 37.0728 72.2681H35.2436V63.1715C35.2436 62.5696 34.7551 62.081 34.1531 62.081C33.5511 62.081 33.0625 62.5696 33.0625 63.1715V72.2666H31.3351C30.9658 72.2666 30.6663 71.9671 30.6663 71.5978V56.7344C30.6663 56.4567 30.5601 56.1906 30.3711 55.9885L25.3604 50.6522C25.0798 50.3541 25.0958 49.883 25.3939 49.6038C25.692 49.3232 26.1631 49.3391 26.4422 49.6372L30.832 54.312C31.0385 54.5316 31.3264 54.6566 31.6274 54.6566H36.782C37.083 54.6566 37.3709 54.5316 37.5774 54.312L41.9672 49.6372C42.2478 49.3391 42.7174 49.3246 43.0155 49.6038C43.3136 49.8844 43.3281 50.3541 43.049 50.6522L38.0383 55.9885C37.8478 56.1906 37.7431 56.4582 37.7431 56.7344V61.7815C37.7431 62.3834 38.2419 62.7281 38.8453 62.7281C39.4487 62.7281 39.9242 62.4023 39.9242 61.8004V57.1663L44.6382 52.1455C45.7419 50.9706 45.6823 49.1167 44.5088 48.0131C43.9388 47.478 43.1973 47.1988 42.415 47.222Z" fill="#39B2D9"/>
</svg>
