<svg width="69" height="66" viewBox="0 0 69 66" fill="none" xmlns="http://www.w3.org/2000/svg">
<path d="M60.95 34.501C59.0449 34.501 57.5 36.0459 57.5 37.951C57.5 39.8561 59.0449 41.401 60.95 41.401C62.8551 41.401 64.4 39.8561 64.4 37.951C64.4 36.0459 62.8551 34.501 60.95 34.501ZM60.95 39.1012C60.3152 39.1012 59.7998 38.5865 59.7998 37.951C59.7998 37.3162 60.3145 36.8008 60.95 36.8008C61.5855 36.8008 62.1002 37.3155 62.1002 37.951C62.1002 38.5865 61.5848 39.1012 60.95 39.1012Z" fill="#F9825D"/>
<path d="M3.50564 16.4839C4.17215 16.4839 4.71246 15.9436 4.71246 15.2771C4.71246 14.6106 4.17215 14.0703 3.50564 14.0703C2.83914 14.0703 2.29883 14.6106 2.29883 15.2771C2.29883 15.9436 2.83914 16.4839 3.50564 16.4839Z" fill="#F9825D"/>
<path d="M3.50658 16.7417C2.69859 16.7417 2.04102 16.0841 2.04102 15.2761C2.04102 14.4681 2.69859 13.8105 3.50658 13.8105C4.31457 13.8105 4.97215 14.4681 4.97215 15.2761C4.97215 16.0841 4.31457 16.7417 3.50658 16.7417ZM3.50658 14.328C2.98356 14.328 2.55852 14.7531 2.55852 15.2761C2.55852 15.7991 2.98356 16.2242 3.50658 16.2242C4.02891 16.2242 4.45464 15.7991 4.45464 15.2761C4.45464 14.7531 4.0296 14.328 3.50658 14.328Z" fill="#F9825D"/>
<path d="M43.6443 38.6412C44.3108 38.6412 44.8511 38.1009 44.8511 37.4344C44.8511 36.7678 44.3108 36.2275 43.6443 36.2275C42.9778 36.2275 42.4375 36.7678 42.4375 37.4344C42.4375 38.1009 42.9778 38.6412 43.6443 38.6412Z" fill="#F9825D"/>
<path d="M69.0001 38.0655C69.0394 33.9504 66.0407 30.5611 62.0994 29.9925V27.9018C62.0994 22.1334 57.7144 17.4365 52.3241 17.4365C47.089 17.4365 42.7068 21.9905 42.5488 27.5885H42.6158L42.5488 27.6003V33.3501C42.5488 33.9849 43.0636 34.5003 43.6991 34.5003C44.3339 34.5003 44.8493 33.9855 44.8493 33.3501V27.6555C44.9645 23.2912 48.32 19.7398 52.3241 19.7398C56.4455 19.7398 59.7989 23.4016 59.7989 27.9046V29.9918C55.3987 30.6266 52.3462 34.7087 52.9817 39.1088C53.6227 43.5504 57.7751 46.6181 62.2229 45.9074C66.0427 45.2981 68.9635 41.9344 69.0001 38.0655ZM60.9491 43.7001C57.7737 43.7001 55.1993 41.1257 55.1993 37.9503C55.1993 34.7742 57.7737 32.2005 60.9491 32.2005C64.1245 32.2005 66.6989 34.7749 66.6989 37.9503C66.6955 41.1243 64.1231 43.6966 60.9491 43.7001Z" fill="#F9825D"/>
<path d="M43.6992 40.1478C43.0644 40.1478 42.549 40.6625 42.549 41.298V50.2632C42.549 57.5083 37.1325 63.3912 30.474 63.3912C23.8154 63.3912 18.3989 57.4993 18.3989 50.2632V48.3002C20.0667 48.3002 21.8489 47.092 21.8489 43.6999V40.8081C29.2299 38.921 34.4988 32.5833 34.4988 25.3983V23.0005H32.199L32.1507 8.03369C32.1341 5.26333 30.1462 2.898 27.42 2.40465C26.8321 0.603738 24.896 -0.380206 23.0944 0.206987C21.3301 0.781759 20.3199 2.77104 20.8954 4.53468C21.4832 6.33628 23.4208 7.31953 25.2224 6.73165C26.187 6.41632 26.9625 5.69044 27.3414 4.74927C28.8145 5.16811 29.835 6.50878 29.8474 8.04059L29.8992 23.0005H27.5994V25.4314C27.5076 29.4314 24.8256 32.9076 20.9802 34.0116C18.9226 34.6643 16.7132 34.6643 14.655 34.0116C10.8137 32.9041 8.13789 29.4286 8.04957 25.4314V23.0005H4.59956V19.2497C4.59956 18.6142 4.08482 18.0994 3.44932 18.0994C2.81383 18.0994 2.29909 18.6142 2.29909 19.2497V23.0005H0V25.3928C0 32.5861 5.27231 38.9258 12.6498 40.8081V43.6999C12.6498 47.0913 14.4321 48.3002 16.0998 48.3002V50.2632C16.0998 58.773 22.5479 65.691 30.4747 65.691C38.4014 65.691 44.8495 58.7647 44.8495 50.2632V41.298C44.8495 40.6632 44.3347 40.1478 43.6992 40.1478ZM24.1494 4.60092C23.5146 4.60092 22.9992 4.08549 22.9992 3.45069C22.9992 2.81589 23.5139 2.30045 24.1494 2.30045C24.7849 2.30045 25.2996 2.8152 25.2996 3.45069C25.2996 4.08618 24.7849 4.60092 24.1494 4.60092ZM2.29978 25.3928V25.3003H5.74979V25.4314C5.83604 30.4298 9.16117 34.7913 13.9581 36.1982C16.4717 36.9945 19.1697 36.9945 21.684 36.1982C26.4837 34.7934 29.8116 30.4312 29.8992 25.4314V25.3003H32.199V25.3928C32.199 31.7898 27.2682 37.4195 20.4689 38.7809C18.8723 39.1004 17.237 39.1811 15.6175 39.0189C15.0841 38.9672 14.5542 38.8872 14.0291 38.7781C7.23123 37.4188 2.29978 31.7898 2.29978 25.3928ZM16.0998 46.0004C15.0648 46.0004 14.9496 44.3906 14.9496 43.7006V41.2601C15.0414 41.2718 15.1359 41.2759 15.229 41.2856C15.3443 41.2987 15.4588 41.3077 15.574 41.318C16.1178 41.3663 16.6663 41.3988 17.2197 41.3995H17.277C17.829 41.3995 18.3762 41.3663 18.9164 41.318C19.0317 41.3077 19.1531 41.2987 19.2718 41.2856C19.3629 41.2753 19.4567 41.2718 19.5478 41.2601V43.7006C19.5478 44.3906 19.4325 46.0004 18.3975 46.0004H16.0998Z" fill="#F9825D"/>
<path d="M3.45033 12.4524C4.08582 12.4524 4.60056 11.9377 4.60056 11.3022V8.05092C4.60746 6.49703 5.65212 5.13842 7.15357 4.73477C7.85323 6.51636 9.86459 7.39266 11.6462 6.69369C13.3905 6.0092 14.291 3.94403 13.6058 2.1997C12.9054 0.418112 10.8941 -0.458881 9.11249 0.240781C8.14717 0.620283 7.40197 1.41172 7.0825 2.39842C4.32663 2.86969 2.30837 5.25434 2.30078 8.05023V11.3015C2.30009 11.9377 2.81483 12.4524 3.45033 12.4524ZM10.3504 2.30113C10.9852 2.30113 11.5006 2.81587 11.5006 3.45136C11.5006 4.08686 10.9852 4.6016 10.3504 4.6016C9.71555 4.6016 9.20012 4.08617 9.20012 3.45136C9.20012 2.81656 9.71486 2.30113 10.3504 2.30113Z" fill="#F9825D"/>
</svg>
