<svg width="74" height="51" viewBox="0 0 74 51" fill="none" xmlns="http://www.w3.org/2000/svg">
<path d="M32.8797 10.0732H8.1557C7.56705 10.0732 7.08984 10.5504 7.08984 11.1391V13.6964C7.08984 14.285 7.56705 14.7615 8.1557 14.7615C8.74434 14.7615 9.22155 14.2843 9.22155 13.6964V12.2049H31.8139V38.208H9.22155V17.9598C9.22155 17.3711 8.74434 16.8939 8.1557 16.8939C7.56705 16.8939 7.08984 17.3711 7.08984 17.9598V39.2731C7.08984 39.8617 7.56705 40.3389 8.1557 40.3389H32.879C33.4676 40.3389 33.9448 39.8617 33.9448 39.2731V11.1391C33.9456 10.5504 33.4684 10.0732 32.8797 10.0732Z" fill="#FF7689"/>
<path d="M65.8451 12.5449H39.1323C38.5436 12.5449 38.0664 13.0221 38.0664 13.6108C38.0664 14.1994 38.5436 14.6759 39.1323 14.6759H65.8451C66.4338 14.6759 66.9102 14.1987 66.9102 13.6108C66.911 13.0221 66.4338 12.5449 65.8451 12.5449Z" fill="#FF7689"/>
<path d="M65.8456 20.2754H59.8776C59.289 20.2754 58.8125 20.7526 58.8125 21.3405C58.8125 21.9291 59.2897 22.4063 59.8776 22.4063H65.8456C66.4343 22.4063 66.9107 21.9291 66.9107 21.3405C66.9115 20.7518 66.4343 20.2754 65.8456 20.2754Z" fill="#FF7689"/>
<path d="M39.1323 22.4063H55.6144C56.2031 22.4063 56.6803 21.9291 56.6803 21.3405C56.6803 20.7518 56.2031 20.2754 55.6144 20.2754H39.1323C38.5436 20.2754 38.0664 20.7526 38.0664 21.3405C38.0664 21.9291 38.5436 22.4063 39.1323 22.4063Z" fill="#FF7689"/>
<path d="M65.8451 28.0059H39.1323C38.5436 28.0059 38.0664 28.4831 38.0664 29.071C38.0664 29.6596 38.5436 30.1368 39.1323 30.1368H65.8451C66.4338 30.1368 66.9102 29.6596 66.9102 29.071C66.911 28.4831 66.4338 28.0059 65.8451 28.0059Z" fill="#FF7689"/>
<path d="M53.6256 35.7373H39.1323C38.5436 35.7373 38.0664 36.2145 38.0664 36.8024C38.0664 37.3911 38.5436 37.8683 39.1323 37.8683H53.6256C54.2142 37.8683 54.6907 37.3911 54.6907 36.8024C54.6907 36.2138 54.2142 35.7373 53.6256 35.7373Z" fill="#FF7689"/>
<path d="M13.0566 35.8634C13.0566 36.4521 13.5338 36.9285 14.1225 36.9285C14.7111 36.9285 15.1883 36.4513 15.1883 35.8634C15.1883 32.9254 17.5788 30.5349 20.5169 30.5349C23.4549 30.5349 25.8454 32.9254 25.8454 35.8634C25.8454 36.4521 26.3226 36.9285 26.9105 36.9285C27.4991 36.9285 27.9763 36.4513 27.9763 35.8634C27.9763 33.1528 26.523 30.7758 24.3547 29.4691C26.523 28.1631 27.9763 25.7861 27.9763 23.0747C27.9763 18.9616 24.6299 15.6152 20.5169 15.6152C16.403 15.6152 13.0566 18.9616 13.0566 23.0747C13.0566 25.7853 14.5107 28.1624 16.679 29.4691C14.5107 30.775 13.0566 33.152 13.0566 35.8634ZM15.1883 23.0747C15.1883 20.1367 17.5788 17.7462 20.5169 17.7462C23.4549 17.7462 25.8454 20.1367 25.8454 23.0747C25.8454 26.0127 23.4549 28.4032 20.5169 28.4032C17.5788 28.4032 15.1883 26.0127 15.1883 23.0747Z" fill="#FF7689"/>
<path d="M18.0516 2.2439H17.3036C16.6835 2.2439 16.1816 1.74126 16.1816 1.12195C16.1816 0.502633 16.6835 0 17.3036 0H18.0516C18.6716 0 19.1735 0.502633 19.1735 1.12195C19.1735 1.74126 18.6709 2.2439 18.0516 2.2439Z" fill="#FF7689"/>
<path d="M71.3574 50.4129H2.64256C1.18553 50.4129 0 49.2274 0 47.7703V2.64256C0 1.18553 1.18553 0 2.64256 0H11.3197C11.9398 0 12.4417 0.502633 12.4417 1.12195C12.4417 1.74126 11.9398 2.2439 11.3197 2.2439H2.64256C2.42266 2.2439 2.2439 2.42266 2.2439 2.64256V47.7703C2.2439 47.9902 2.42266 48.169 2.64256 48.169H71.3574C71.5773 48.169 71.7561 47.9902 71.7561 47.7703V2.64256C71.7561 2.42266 71.5773 2.2439 71.3574 2.2439H23.2872C22.6671 2.2439 22.1652 1.74126 22.1652 1.12195C22.1652 0.502633 22.6671 0 23.2872 0H71.3574C72.8145 0 74 1.18553 74 2.64256V47.7703C73.9993 49.2274 72.8137 50.4129 71.3574 50.4129Z" fill="#FF7689"/>
<path d="M58.8101 38.2375C59.5326 38.2375 60.1183 37.6518 60.1183 36.9293C60.1183 36.2068 59.5326 35.6211 58.8101 35.6211C58.0877 35.6211 57.502 36.2068 57.502 36.9293C57.502 37.6518 58.0877 38.2375 58.8101 38.2375Z" fill="#FF7689"/>
<path d="M65.6715 38.2375C66.394 38.2375 66.9797 37.6518 66.9797 36.9293C66.9797 36.2068 66.394 35.6211 65.6715 35.6211C64.949 35.6211 64.3633 36.2068 64.3633 36.9293C64.3633 37.6518 64.949 38.2375 65.6715 38.2375Z" fill="#FF7689"/>
</svg>
