<svg width="58" height="68" viewBox="0 0 58 68" fill="none" xmlns="http://www.w3.org/2000/svg">
<path d="M56.9376 11.7424C47.5818 9.17917 38.1704 5.18707 29.7226 0.199024C29.274 -0.0663415 28.7167 -0.0663415 28.2681 0.199024C19.5757 5.33054 10.6735 9.10619 1.05234 11.7424C0.43039 11.9124 0 12.4772 0 13.1223V27.7374C0 42.7878 6.94346 52.7506 12.7682 58.4576C19.0383 64.6017 26.3425 68 28.9945 68C31.6465 68 38.9507 64.6017 45.2217 58.4576C51.0464 52.7506 57.9891 42.7886 57.9891 27.7374V13.1215C57.9899 12.4772 57.5587 11.9124 56.9376 11.7424ZM55.1289 27.7374C55.1289 41.7943 48.6532 51.0904 43.2198 56.4143C37.0534 62.4563 30.4599 65.139 28.9945 65.139C27.5292 65.139 20.9357 62.4563 14.7693 56.4143C9.33673 51.0912 2.86015 41.7951 2.86015 27.7374V14.2079C12.0609 11.5957 20.6297 7.94937 28.9954 3.0882C37.1521 7.82083 46.1479 11.6479 55.1289 14.207V27.7374Z" fill="#957BDD"/>
<path d="M16.3149 14.0483C16.0255 13.3135 15.1945 12.952 14.4598 13.2414C11.9048 14.2481 9.28187 15.1752 6.66469 15.9962C6.06845 16.1836 5.66211 16.7359 5.66211 17.3612V22.885C5.66211 23.6753 6.3023 24.3154 7.0926 24.3154C7.88289 24.3154 8.52309 23.6753 8.52309 22.885V18.4069C10.8707 17.6473 13.2167 16.8072 15.5088 15.9033C16.2436 15.6139 16.6051 14.783 16.3149 14.0483Z" fill="#957BDD"/>
<path d="M19.035 14.3197C19.2266 14.3197 19.4215 14.2807 19.609 14.1994L19.6355 14.1878C20.3596 13.871 20.6855 13.0283 20.3679 12.3042C20.0502 11.5801 19.2034 11.2533 18.4801 11.5702L18.4569 11.5801C17.7328 11.8961 17.406 12.738 17.722 13.4621C17.9559 13.9995 18.4826 14.3197 19.035 14.3197Z" fill="#957BDD"/>
<path d="M46.0364 46.1228C45.3755 45.6907 44.489 45.8765 44.0561 46.5374C42.8777 48.3419 41.4945 50.0692 39.9455 51.6714C38.6717 52.9891 37.291 54.2172 35.8422 55.3218C35.2145 55.8011 35.0934 56.6984 35.5719 57.327C35.8538 57.696 36.2793 57.8901 36.7105 57.8901C37.0132 57.8901 37.3175 57.7947 37.5771 57.5973C39.1394 56.4057 40.6288 55.0813 42.002 53.6608C43.6772 51.9285 45.174 50.0585 46.4511 48.103C46.8839 47.4413 46.6982 46.5548 46.0364 46.1228Z" fill="#957BDD"/>
<path d="M32.5229 57.5663L32.4407 57.6144C31.7573 58.01 31.5234 58.8859 31.919 59.5694C32.1845 60.028 32.6647 60.2835 33.1582 60.2835C33.4012 60.2835 33.6484 60.2213 33.8732 60.0902L33.9677 60.0347C34.6495 59.6357 34.8784 58.759 34.4795 58.0772C34.0813 57.3963 33.2046 57.1673 32.5229 57.5663Z" fill="#957BDD"/>
<path d="M19.2446 31.0808C18.3664 30.2026 17.198 29.7192 15.9557 29.7192C14.7135 29.7192 13.545 30.2026 12.6668 31.0808C10.8532 32.8944 10.8532 35.8458 12.6668 37.6594L21.1129 46.1055C21.9911 46.9837 23.1596 47.4672 24.4018 47.4672C25.6441 47.4672 26.8125 46.9837 27.6907 46.1055L45.3226 28.4736C47.1354 26.6592 47.1354 23.7086 45.3226 21.8958C44.4444 21.0176 43.276 20.5342 42.0337 20.5342C40.7915 20.5342 39.623 21.0176 38.7448 21.8958L24.4018 36.2372L19.2446 31.0808ZM40.7674 23.9176C41.1058 23.5793 41.5552 23.3935 42.0337 23.3935C42.5122 23.3935 42.9617 23.5793 43.3 23.9176C43.9983 24.6158 43.9983 25.7519 43.3 26.4502L25.6681 44.0813C25.3298 44.4196 24.8803 44.6054 24.4018 44.6054C23.9233 44.6054 23.4739 44.4196 23.1355 44.0813L14.6894 35.636C13.9912 34.9377 13.9912 33.8016 14.6894 33.1034C15.0278 32.7651 15.4772 32.5793 15.9557 32.5793C16.4342 32.5793 16.8837 32.7651 17.222 33.1034L23.3901 39.2723C23.6588 39.5402 24.022 39.6911 24.4018 39.6911C24.7816 39.6911 25.1448 39.5402 25.4127 39.2723L40.7674 23.9176Z" fill="#957BDD"/>
</svg>
