<?xml version="1.0" encoding="utf-8"?>
<!-- Generator: Adobe Illustrator 21.0.0, SVG Export Plug-In . SVG Version: 6.00 Build 0)  -->
<svg version="1.1" id="Layer_1" xmlns="http://www.w3.org/2000/svg" xmlns:xlink="http://www.w3.org/1999/xlink" x="0px" y="0px"
	 viewBox="0 0 110 110" enable-background="new 0 0 110 110" xml:space="preserve">
<g>
	
		<line fill="none" stroke="#EE6A3A" stroke-width="3" stroke-linecap="round" stroke-linejoin="round" stroke-miterlimit="10" x1="44.316" y1="66.583" x2="44.628" y2="66.583"/>
	
		<line fill="none" stroke="#EE6A3A" stroke-width="3" stroke-linecap="round" stroke-linejoin="round" stroke-miterlimit="10" x1="86.427" y1="66.583" x2="86.74" y2="66.583"/>
	<path fill="none" stroke="#EE6A3A" stroke-width="3" stroke-linecap="round" stroke-linejoin="round" stroke-miterlimit="10" d="
		M98.583,92.167H11.417C7.873,92.167,5,95.04,5,98.583v0C5,102.127,7.873,105,11.417,105h87.167c3.544,0,6.417-2.873,6.417-6.417v0
		C105,95.04,102.127,92.167,98.583,92.167z"/>
	
		<line fill="none" stroke="#EE6A3A" stroke-width="3" stroke-linecap="round" stroke-linejoin="round" stroke-miterlimit="10" x1="5" y1="5" x2="92.534" y2="5"/>
	
		<line fill="none" stroke="#EE6A3A" stroke-width="3" stroke-linecap="round" stroke-linejoin="round" stroke-miterlimit="10" x1="98.224" y1="5" x2="105" y2="5"/>
	
		<line fill="none" stroke="#EE6A3A" stroke-width="3" stroke-linecap="round" stroke-linejoin="round" stroke-miterlimit="10" x1="86.583" y1="12.125" x2="86.583" y2="57.801"/>
	
		<circle fill="none" stroke="#EE6A3A" stroke-width="3" stroke-linecap="round" stroke-linejoin="round" stroke-miterlimit="10" cx="86.583" cy="66.583" r="7.417"/>
	
		<line fill="none" stroke="#EE6A3A" stroke-width="3" stroke-linecap="round" stroke-linejoin="round" stroke-miterlimit="10" stroke-dasharray="3,6" x1="65.528" y1="5.417" x2="65.528" y2="59.167"/>
	
		<circle fill="none" stroke="#EE6A3A" stroke-width="3" stroke-linecap="round" stroke-linejoin="round" stroke-miterlimit="10" cx="65.528" cy="66.583" r="7.417"/>
	
		<line fill="none" stroke="#EE6A3A" stroke-width="3" stroke-linecap="round" stroke-linejoin="round" stroke-miterlimit="10" x1="44.472" y1="5.417" x2="44.472" y2="52.489"/>
	
		<circle fill="none" stroke="#EE6A3A" stroke-width="3" stroke-linecap="round" stroke-linejoin="round" stroke-miterlimit="10" cx="44.472" cy="66.583" r="7.417"/>
	<g>
		
			<line fill="none" stroke="#EE6A3A" stroke-width="3" stroke-linecap="round" stroke-linejoin="round" stroke-miterlimit="10" x1="24.558" y1="5.417" x2="13.861" y2="59.309"/>
		<path fill="none" stroke="#EE6A3A" stroke-width="3" stroke-linecap="round" stroke-linejoin="round" stroke-miterlimit="10" d="
			M12.417,74C8.321,74,5,70.679,5,66.583c0-4.096,3.321-7.417,7.417-7.417s7.417,3.321,7.417,7.417c0,2.06-0.839,3.923-2.195,5.267"
			/>
	</g>
	<g>
		
			<line fill="none" stroke="#EE6A3A" stroke-width="3" stroke-linecap="round" stroke-linejoin="round" stroke-miterlimit="10" x1="11.596" y1="92.167" x2="11.596" y2="85.833"/>
		
			<line fill="none" stroke="#EE6A3A" stroke-width="3" stroke-linecap="round" stroke-linejoin="round" stroke-miterlimit="10" x1="98.404" y1="92.167" x2="98.404" y2="85.833"/>
	</g>
</g>
</svg>
