<?xml version="1.0" encoding="utf-8"?>
<!-- Generator: Adobe Illustrator 17.0.0, SVG Export Plug-In . SVG Version: 6.00 Build 0)  -->
<!DOCTYPE svg PUBLIC "-//W3C//DTD SVG 1.1//EN" "http://www.w3.org/Graphics/SVG/1.1/DTD/svg11.dtd">
<svg version="1.1" id="Layer_1" xmlns="http://www.w3.org/2000/svg" xmlns:xlink="http://www.w3.org/1999/xlink" x="0px" y="0px"
	 width="110px" height="110px" viewBox="0 0 110 110" enable-background="new 0 0 110 110" xml:space="preserve">
<g>
	<circle fill="none" stroke="#F26A3A" stroke-width="3" stroke-miterlimit="10" cx="76.961" cy="74.167" r="3.667"/>
	<path fill="none" stroke="#F26A3A" stroke-width="3" stroke-linecap="round" stroke-linejoin="round" stroke-miterlimit="10" d="
		M55,55c-13.807,0-25-11.193-25-25S41.193,5,55,5s25,11.193,25,25"/>
	<path fill="none" stroke="#F26A3A" stroke-width="3" stroke-linecap="round" stroke-linejoin="round" stroke-miterlimit="10" d="
		M19.687,98.96c0.564,0.241,1.148,0.479,1.752,0.714"/>
	<path fill="none" stroke="#F26A3A" stroke-width="3" stroke-linecap="round" stroke-linejoin="round" stroke-miterlimit="10" d="
		M26.824,101.486C33.907,103.537,43.122,105,55,105c39.75,0,49.682-16.38,49.682-16.38c-1.872-16.692-11.959-30.896-26.127-38.478
		C72.869,56.785,64.429,61,55,61s-17.869-4.215-23.555-10.858C17.278,57.724,7.19,71.928,5.318,88.62c0,0,2.538,4.187,10.185,8.327"
		/>
	<path fill="none" stroke="#F26A3A" stroke-width="3" stroke-linecap="round" stroke-linejoin="round" stroke-miterlimit="10" d="
		M30.378,25.69c2.874,0.58,5.925,0.893,9.087,0.893c15.169,0,27.782-7.179,30.441-16.654C65.744,6.833,60.586,5,55,5
		C42.664,5,32.421,13.938,30.378,25.69z"/>
	<path fill="none" stroke="#F26A3A" stroke-width="3" stroke-linecap="round" stroke-linejoin="round" stroke-miterlimit="10" d="
		M77.991,39.835C79.284,36.817,80,33.492,80,30c0-0.506-0.016-1.007-0.045-1.505c-0.887,0.109-1.788,0.172-2.705,0.172
		c-6.625,0-12.565-2.944-16.613-7.599c-5.536,3.419-12.979,5.516-21.172,5.516c-3.163,0-6.213-0.314-9.087-0.893
		C30.134,27.091,30,28.529,30,30c0,13.807,11.193,25,25,25c8.129,0,15.352-3.88,19.918-9.889"/>
	
		<line fill="none" stroke="#F26A3A" stroke-width="3" stroke-linecap="round" stroke-linejoin="round" stroke-miterlimit="10" stroke-dasharray="0,8" x1="55" y1="68.486" x2="55" y2="97.514"/>
	
		<line fill="none" stroke="#F26A3A" stroke-width="3" stroke-linecap="round" stroke-linejoin="round" stroke-miterlimit="10" x1="26.823" y1="74.167" x2="36.893" y2="74.167"/>
</g>
</svg>
