<?xml version="1.0" encoding="utf-8"?>
<!-- Generator: Adobe Illustrator 21.0.0, SVG Export Plug-In . SVG Version: 6.00 Build 0)  -->
<svg version="1.1" id="Layer_1" xmlns="http://www.w3.org/2000/svg" xmlns:xlink="http://www.w3.org/1999/xlink" x="0px" y="0px"
	 viewBox="0 0 110 110" enable-background="new 0 0 110 110" xml:space="preserve">
<g>
	<g>
		<path fill="none" stroke="#EE6A3A" stroke-width="3" stroke-linecap="round" stroke-linejoin="round" stroke-miterlimit="10" d="
			M59.711,54.028C58.574,55.357,56.886,56.2,55,56.2c-1.886,0-3.574-0.843-4.711-2.172c-2.834,1.516-4.851,4.357-5.225,7.696
			c0,0,0.508,0.837,2.037,1.665l2.264,0.908C50.781,64.707,52.624,65,55,65c7.95,0,9.936-3.276,9.936-3.276
			C64.562,58.386,62.544,55.545,59.711,54.028z"/>
		<path fill="none" stroke="#EE6A3A" stroke-width="3" stroke-linecap="round" stroke-linejoin="round" stroke-miterlimit="10" d="
			M55,55c1.626,0,3.07-0.776,3.984-1.978l0.615-1.055C59.857,51.363,60,50.698,60,50c0-0.101-0.003-0.201-0.009-0.301
			c-0.002,0-0.004,0-0.006,0c-0.091-1.519-0.857-2.853-2.006-3.708c0.001-0.002,0.001-0.004,0.002-0.005
			c-0.018-0.013-0.039-0.023-0.057-0.036c-0.186-0.134-0.379-0.258-0.582-0.367c-0.025-0.013-0.051-0.024-0.075-0.036
			c-0.192-0.098-0.391-0.182-0.596-0.255c-0.037-0.013-0.073-0.028-0.111-0.041c-0.219-0.072-0.445-0.127-0.677-0.169
			c-0.049-0.009-0.098-0.015-0.147-0.022C55.495,45.024,55.251,45,55,45c-0.164,0-0.326,0.009-0.486,0.025
			c-0.053,0.005-0.105,0.015-0.157,0.021c-0.106,0.014-0.212,0.028-0.315,0.048c-0.062,0.012-0.122,0.028-0.182,0.042
			c-0.092,0.022-0.184,0.044-0.275,0.071c-0.064,0.019-0.126,0.04-0.188,0.061c-0.085,0.029-0.169,0.059-0.251,0.092
			c-0.063,0.025-0.125,0.052-0.186,0.079c-0.079,0.036-0.157,0.073-0.234,0.113c-0.061,0.031-0.121,0.062-0.18,0.096
			c-0.074,0.042-0.146,0.087-0.218,0.133c-0.058,0.037-0.116,0.073-0.172,0.112c-0.07,0.049-0.137,0.101-0.204,0.153
			c-0.054,0.041-0.108,0.081-0.16,0.125c-0.068,0.057-0.133,0.119-0.198,0.18c-0.046,0.043-0.094,0.084-0.139,0.128
			c-0.102,0.103-0.199,0.21-0.292,0.322c-0.049,0.059-0.093,0.121-0.139,0.182c-0.045,0.06-0.092,0.118-0.134,0.18
			c-0.046,0.066-0.087,0.135-0.13,0.203c-0.038,0.06-0.076,0.12-0.111,0.182c-0.041,0.072-0.078,0.146-0.115,0.22
			c-0.031,0.062-0.062,0.124-0.09,0.187c-0.034,0.077-0.066,0.155-0.097,0.233c-0.025,0.064-0.049,0.129-0.071,0.195
			c-0.028,0.081-0.054,0.162-0.077,0.244c-0.019,0.067-0.036,0.134-0.052,0.202c-0.02,0.084-0.04,0.168-0.056,0.254
			c-0.004,0.019-0.009,0.037-0.012,0.056c-0.01,0.06-0.016,0.121-0.024,0.182c-0.01,0.071-0.021,0.141-0.028,0.213
			C50.009,49.687,50,49.842,50,50C50,52.761,52.239,55,55,55z"/>
	</g>
	
		<circle fill="none" stroke="#EE6A3A" stroke-width="3" stroke-linecap="round" stroke-linejoin="round" stroke-miterlimit="10" cx="55" cy="55" r="19.847"/>
	
		<circle fill="none" stroke="#EE6A3A" stroke-width="3" stroke-linecap="round" stroke-linejoin="round" stroke-miterlimit="10" cx="55" cy="10.583" r="5.583"/>
	
		<ellipse transform="matrix(0.7071 -0.7071 0.7071 0.7071 -7.2789 18.5295)" fill="none" stroke="#EE6A3A" stroke-width="3" stroke-linecap="round" stroke-linejoin="round" stroke-miterlimit="10" cx="18.728" cy="18.051" rx="7.75" ry="7.75"/>
	<path fill="none" stroke="#EE6A3A" stroke-width="3" stroke-linecap="round" stroke-linejoin="round" stroke-miterlimit="10" d="
		M6.45,59.515C5.537,58.243,5,56.684,5,55c0-4.28,3.47-7.75,7.75-7.75S20.5,50.72,20.5,55s-3.47,7.75-7.75,7.75"/>
	
		<ellipse transform="matrix(0.7071 -0.7071 0.7071 0.7071 -55.6029 41.405)" fill="none" stroke="#EE6A3A" stroke-width="3" stroke-linecap="round" stroke-linejoin="round" stroke-miterlimit="10" cx="22.179" cy="87.821" rx="5.348" ry="5.348"/>
	
		<circle fill="none" stroke="#EE6A3A" stroke-width="3" stroke-linecap="round" stroke-linejoin="round" stroke-miterlimit="10" cx="55" cy="97.25" r="7.75"/>
	
		<ellipse transform="matrix(0.7071 -0.7071 0.7071 0.7071 -37.7711 91.1875)" fill="none" stroke="#EE6A3A" stroke-width="3" stroke-linecap="round" stroke-linejoin="round" stroke-miterlimit="10" cx="91.188" cy="91.188" rx="7.75" ry="7.75"/>
	
		<circle fill="none" stroke="#EE6A3A" stroke-width="3" stroke-linecap="round" stroke-linejoin="round" stroke-miterlimit="10" cx="97.25" cy="55" r="7.75"/>
	<path fill="none" stroke="#EE6A3A" stroke-width="3" stroke-linecap="round" stroke-linejoin="round" stroke-miterlimit="10" d="
		M90.355,19.645c3.027,3.027,3.027,7.934,0,10.96s-7.934,3.027-10.96,0c-3.027-3.027-3.027-7.934,0-10.96
		c1.348-1.348,3.069-2.096,4.831-2.243"/>
	
		<line fill="none" stroke="#EE6A3A" stroke-width="3" stroke-linecap="round" stroke-linejoin="round" stroke-miterlimit="10" x1="55" y1="16.167" x2="55" y2="28"/>
	
		<line fill="none" stroke="#EE6A3A" stroke-width="3" stroke-linecap="round" stroke-linejoin="round" stroke-miterlimit="10" stroke-dasharray="3,6" x1="55" y1="74.847" x2="55" y2="89.5"/>
	
		<line fill="none" stroke="#EE6A3A" stroke-width="3" stroke-linecap="round" stroke-linejoin="round" stroke-miterlimit="10" x1="25.96" y1="84.04" x2="34.309" y2="75.691"/>
	
		<line fill="none" stroke="#EE6A3A" stroke-width="3" stroke-linecap="round" stroke-linejoin="round" stroke-miterlimit="10" x1="20.5" y1="55" x2="35.153" y2="55"/>
	
		<line fill="none" stroke="#EE6A3A" stroke-width="3" stroke-linecap="round" stroke-linejoin="round" stroke-miterlimit="10" stroke-dasharray="3,6" x1="25.125" y1="25.125" x2="41.001" y2="41.001"/>
	
		<line fill="none" stroke="#EE6A3A" stroke-width="3" stroke-linecap="round" stroke-linejoin="round" stroke-miterlimit="10" x1="79.395" y1="30.605" x2="69.025" y2="40.975"/>
	
		<line fill="none" stroke="#EE6A3A" stroke-width="3" stroke-linecap="round" stroke-linejoin="round" stroke-miterlimit="10" x1="89.5" y1="55" x2="74.847" y2="55"/>
	
		<line fill="none" stroke="#EE6A3A" stroke-width="3" stroke-linecap="round" stroke-linejoin="round" stroke-miterlimit="10" stroke-dasharray="3,6" x1="85.707" y1="85.707" x2="68.986" y2="68.986"/>
	
		<line fill="none" stroke="#EE6A3A" stroke-width="3" stroke-linecap="round" stroke-linejoin="round" stroke-miterlimit="10" x1="97.094" y1="55" x2="97.406" y2="55"/>
	
		<line fill="none" stroke="#EE6A3A" stroke-width="3" stroke-linecap="round" stroke-linejoin="round" stroke-miterlimit="10" x1="18.571" y1="18.051" x2="18.884" y2="18.051"/>
</g>
</svg>
