<?xml version="1.0" encoding="utf-8"?>
<!-- Generator: Adobe Illustrator 17.0.0, SVG Export Plug-In . SVG Version: 6.00 Build 0)  -->
<!DOCTYPE svg PUBLIC "-//W3C//DTD SVG 1.1//EN" "http://www.w3.org/Graphics/SVG/1.1/DTD/svg11.dtd">
<svg version="1.1" id="Layer_1" xmlns="http://www.w3.org/2000/svg" xmlns:xlink="http://www.w3.org/1999/xlink" x="0px" y="0px"
	 width="110px" height="110px" viewBox="0 0 110 110" enable-background="new 0 0 110 110" xml:space="preserve">
<g>
	<circle fill="none" stroke="#F26A3A" stroke-width="3" stroke-miterlimit="10" cx="19.284" cy="76.91" r="3.667"/>
	<path fill="none" stroke="#F26A3A" stroke-width="3" stroke-linecap="round" stroke-linejoin="round" stroke-miterlimit="10" d="
		M82.265,43.501l1.661-1.661c2.233-2.233,2.233-5.855,0-8.088c-2.233-2.233-5.855-2.233-8.088,0l-1.661,1.661l-1.661-1.661
		c-2.233-2.233-5.855-2.233-8.088,0c-2.233,2.233-2.233,5.855,0,8.088l1.661,1.661l8.088,8.088L82.265,43.501z"/>
	<path fill="none" stroke="#F26A3A" stroke-width="3" stroke-linecap="round" stroke-linejoin="round" stroke-miterlimit="10" d="
		M58.944,24.693l2.864-2.864c3.85-3.85,3.85-10.092,0-13.942s-10.092-3.85-13.942,0l-2.864,2.864l-2.864-2.864
		c-3.85-3.85-10.092-3.85-13.942,0c-3.85,3.85-3.85,10.092,0,13.942l2.864,2.864l13.942,13.942L58.944,24.693z"/>
	<g>
		<path fill="none" stroke="#F26A3A" stroke-width="3" stroke-linecap="round" stroke-linejoin="round" stroke-miterlimit="10" d="
			M66.259,83.321c-2.421-0.64-5.487-1.822-9.636-3.177c-7.795-2.546-12.673,3.768-12.673,3.768L29.285,67.618l10.183-7.23
			c0,0,6.51-3.872,14.562-3.9c5.481-0.019,10.623,1.447,10.623,1.447l7.147,1.944c0,0,5.277,1.06,4.583,5.346
			c-0.651,4.016-4.481,3.564-7.128,3.208c-2.648-0.356-9.827-1.222-9.827-1.222"/>
		<path fill="none" stroke="#F26A3A" stroke-width="3" stroke-linecap="round" stroke-linejoin="round" stroke-miterlimit="10" d="
			M76.74,65.174l21.283-8.554c0,0,4.684-1.12,6.517,3.157c1.833,4.277-2.444,6.517-2.444,6.517s-21.63,12.611-28.711,16.281"/>
		<path fill="none" stroke="#F26A3A" stroke-width="3" stroke-linecap="round" stroke-linejoin="round" stroke-miterlimit="10" d="
			M99.347,56.491c0,0,1.12-3.842-2.139-5.675c-3.259-1.833-5.805-0.407-7.23,1.222c-1.426,1.629-9.438,11.609-9.438,11.609"/>
		<path fill="none" stroke="#F26A3A" stroke-width="3" stroke-linecap="round" stroke-linejoin="round" stroke-miterlimit="10" d="
			M7.354,82.994l-1.437-1.632c-1.338-1.52-1.191-3.836,0.329-5.174l14.142-12.45c1.52-1.338,3.836-1.191,5.174,0.329l19.716,22.395
			c1.338,1.52,1.191,3.836-0.329,5.174l-14.142,12.45c-1.52,1.338-3.836,1.191-5.174-0.329L14.561,91.18"/>
		
			<line fill="none" stroke="#F26A3A" stroke-width="3" stroke-linecap="round" stroke-linejoin="round" stroke-miterlimit="10" x1="10.746" y1="86.846" x2="10.506" y2="86.573"/>
	</g>
	
		<line fill="none" stroke="#F26A3A" stroke-width="3" stroke-linecap="round" stroke-linejoin="round" stroke-miterlimit="10" x1="37.579" y1="89.167" x2="28.736" y2="96.952"/>
</g>
</svg>
