<?xml version="1.0" encoding="utf-8"?>
<!-- Generator: Adobe Illustrator 21.0.0, SVG Export Plug-In . SVG Version: 6.00 Build 0)  -->
<svg version="1.1" id="Layer_1" xmlns="http://www.w3.org/2000/svg" xmlns:xlink="http://www.w3.org/1999/xlink" x="0px" y="0px"
	 viewBox="0 0 110 110" enable-background="new 0 0 110 110" xml:space="preserve">
<g>
	
		<circle fill="none" stroke="#EE6A3A" stroke-width="3" stroke-linecap="round" stroke-linejoin="round" stroke-miterlimit="10" cx="37.585" cy="34.352" r="5.655"/>
	<path fill="none" stroke="#EE6A3A" stroke-width="3" stroke-linecap="round" stroke-linejoin="round" stroke-miterlimit="10" d="
		M75.795,38.351c-2.209,2.209-5.789,2.209-7.998,0c-2.209-2.209-2.209-5.789,0-7.998c2.209-2.209,5.789-2.209,7.998,0
		c1.104,1.104,1.656,2.551,1.656,3.998C77.452,35.799,76.9,37.247,75.795,38.351z"/>
	
		<circle fill="none" stroke="#EE6A3A" stroke-width="3" stroke-linecap="round" stroke-linejoin="round" stroke-miterlimit="10" cx="75.875" cy="59.356" r="5.655"/>
	
		<circle fill="none" stroke="#EE6A3A" stroke-width="3" stroke-linecap="round" stroke-linejoin="round" stroke-miterlimit="10" cx="33.781" cy="59.356" r="5.655"/>
	<path fill="none" stroke="#EE6A3A" stroke-width="3" stroke-linecap="round" stroke-linejoin="round" stroke-miterlimit="10" d="
		M48.988,7.629c1.421-1.627,3.51-2.655,5.84-2.655c4.28,0,7.75,3.47,7.75,7.75s-3.47,7.75-7.75,7.75s-7.75-3.47-7.75-7.75"/>
	<g>
		
			<line fill="none" stroke="#EE6A3A" stroke-width="3" stroke-linecap="round" stroke-linejoin="round" stroke-miterlimit="10" x1="31.138" y1="104.975" x2="68.638" y2="104.975"/>
		
			<line fill="none" stroke="#EE6A3A" stroke-width="3" stroke-linecap="round" stroke-linejoin="round" stroke-miterlimit="10" x1="73.684" y1="104.975" x2="78.517" y2="104.975"/>
	</g>
	<path fill="none" stroke="#EE6A3A" stroke-width="3" stroke-linecap="round" stroke-linejoin="round" stroke-miterlimit="10" d="
		M61.494,34.352c-3.667,0-6.667,3-6.667,6.667v17.903"/>
	<path fill="none" stroke="#EE6A3A" stroke-width="3" stroke-linecap="round" stroke-linejoin="round" stroke-miterlimit="10" d="
		M61.494,104.975V89.374c0-3.667,3-6.667,6.667-6.667h11.682"/>
	
		<path fill="none" stroke="#EE6A3A" stroke-width="3" stroke-linecap="round" stroke-linejoin="round" stroke-miterlimit="10" stroke-dasharray="3,6" d="
		M48.161,104.975V89.374c0-3.667-3-6.667-6.667-6.667H29.813"/>
	<path fill="none" stroke="#EE6A3A" stroke-width="3" stroke-linecap="round" stroke-linejoin="round" stroke-miterlimit="10" d="
		M48.161,34.352c3.667,0,6.667,3,6.667,6.667v17.903"/>
	
		<line fill="none" stroke="#EE6A3A" stroke-width="3" stroke-linecap="round" stroke-linejoin="round" stroke-miterlimit="10" x1="54.828" y1="105.025" x2="54.828" y2="20.475"/>
	
		<line fill="none" stroke="#EE6A3A" stroke-width="3" stroke-linecap="round" stroke-linejoin="round" stroke-miterlimit="10" x1="23.911" y1="34.352" x2="31.847" y2="34.352"/>
	
		<line fill="none" stroke="#EE6A3A" stroke-width="3" stroke-linecap="round" stroke-linejoin="round" stroke-miterlimit="10" x1="77.673" y1="34.352" x2="82.309" y2="34.352"/>
	
		<line fill="none" stroke="#EE6A3A" stroke-width="3" stroke-linecap="round" stroke-linejoin="round" stroke-miterlimit="10" x1="87.186" y1="59.356" x2="95.121" y2="59.356"/>
	<path fill="none" stroke="#EE6A3A" stroke-width="3" stroke-linecap="round" stroke-linejoin="round" stroke-miterlimit="10" d="
		M89.415,78.628c1.072,1.029,1.739,2.476,1.739,4.079c0,3.123-2.532,5.655-5.655,5.655s-5.655-2.532-5.655-5.655
		c0-3.123,2.532-5.655,5.655-5.655"/>
	
		<line fill="none" stroke="#EE6A3A" stroke-width="3" stroke-linecap="round" stroke-linejoin="round" stroke-miterlimit="10" x1="91.153" y1="82.707" x2="96.559" y2="82.707"/>
	<g>
		
			<circle fill="none" stroke="#EE6A3A" stroke-width="3" stroke-linecap="round" stroke-linejoin="round" stroke-miterlimit="10" cx="24.157" cy="82.707" r="5.655"/>
		
			<line fill="none" stroke="#EE6A3A" stroke-width="3" stroke-linecap="round" stroke-linejoin="round" stroke-miterlimit="10" x1="18.502" y1="82.707" x2="10.566" y2="82.707"/>
	</g>
	
		<path fill="none" stroke="#EE6A3A" stroke-width="3" stroke-linecap="round" stroke-linejoin="round" stroke-miterlimit="10" stroke-dasharray="3,4" d="
		M69.43,59.356h-7.936c-3.667,0-6.667,3-6.667,6.667v39.002"/>
	<path fill="none" stroke="#EE6A3A" stroke-width="3" stroke-linecap="round" stroke-linejoin="round" stroke-miterlimit="10" d="
		M39.831,59.356h7.936h0.395c3.667,0,6.667,3,6.667,6.667v39.002"/>
	
		<line fill="none" stroke="#EE6A3A" stroke-width="3" stroke-linecap="round" stroke-linejoin="round" stroke-miterlimit="10" x1="23.911" y1="59.356" x2="28.125" y2="59.356"/>
	
		<line fill="none" stroke="#EE6A3A" stroke-width="3" stroke-linecap="round" stroke-linejoin="round" stroke-miterlimit="10" x1="33.624" y1="59.356" x2="33.937" y2="59.356"/>
	
		<line fill="none" stroke="#EE6A3A" stroke-width="3" stroke-linecap="round" stroke-linejoin="round" stroke-miterlimit="10" x1="54.671" y1="12.725" x2="54.984" y2="12.725"/>
	
		<line fill="none" stroke="#EE6A3A" stroke-width="3" stroke-linecap="round" stroke-linejoin="round" stroke-miterlimit="10" x1="85.342" y1="82.707" x2="85.654" y2="82.707"/>
</g>
</svg>
