<?xml version="1.0" encoding="utf-8"?>
<!-- Generator: Adobe Illustrator 17.0.0, SVG Export Plug-In . SVG Version: 6.00 Build 0)  -->
<!DOCTYPE svg PUBLIC "-//W3C//DTD SVG 1.1//EN" "http://www.w3.org/Graphics/SVG/1.1/DTD/svg11.dtd">
<svg version="1.1" id="Layer_1" xmlns="http://www.w3.org/2000/svg" xmlns:xlink="http://www.w3.org/1999/xlink" x="0px" y="0px"
	 width="110px" height="110px" viewBox="0 0 110 110" enable-background="new 0 0 110 110" xml:space="preserve">
<g>
	<path fill="none" stroke="#F26A3A" stroke-width="3" stroke-linecap="round" stroke-linejoin="round" stroke-miterlimit="10" d="
		M50.935,12.872C52.088,12.07,53.489,11.6,55,11.6c3.937,0,7.128,3.191,7.128,7.128S58.937,25.855,55,25.855
		c-3.412,0-6.264-2.397-6.963-5.599"/>
	<g>
		
			<line fill="none" stroke="#F26A3A" stroke-width="3" stroke-linecap="round" stroke-linejoin="round" stroke-miterlimit="10" x1="35.333" y1="76.111" x2="35.333" y2="81.033"/>
		
			<line fill="none" stroke="#F26A3A" stroke-width="3" stroke-linecap="round" stroke-linejoin="round" stroke-miterlimit="10" x1="35.333" y1="87.821" x2="35.333" y2="92.743"/>
	</g>
	<g>
		
			<line fill="none" stroke="#F26A3A" stroke-width="3" stroke-linecap="round" stroke-linejoin="round" stroke-miterlimit="10" x1="75.861" y1="76.653" x2="75.861" y2="81.537"/>
		
			<line fill="none" stroke="#F26A3A" stroke-width="3" stroke-linecap="round" stroke-linejoin="round" stroke-miterlimit="10" x1="75.861" y1="54.071" x2="75.861" y2="93.158"/>
	</g>
	<g>
		<circle fill="none" stroke="#F26A3A" stroke-width="3" stroke-miterlimit="10" cx="55" cy="87.615" r="6.25"/>
		<circle fill="none" stroke="#F26A3A" stroke-width="3" stroke-miterlimit="10" cx="57.583" cy="69.121" r="3.667"/>
		<circle fill="none" stroke="#F26A3A" stroke-width="3" stroke-miterlimit="10" cx="57.583" cy="57.323" r="3.667"/>
		
			<line fill="none" stroke="#F26A3A" stroke-width="3" stroke-linecap="round" stroke-linejoin="round" stroke-miterlimit="10" x1="61.25" y1="77.112" x2="61.25" y2="77.112"/>
	</g>
	<path fill="none" stroke="#F26A3A" stroke-width="3" stroke-linecap="round" stroke-linejoin="round" stroke-miterlimit="10" d="
		M83.901,81.122V97c0,4.418-3.582,8-8,8H34.099c-4.418,0-8-3.582-8-8V35.75c0-6.891,4.572-15.759,11.144-22.2"/>
	
		<polyline fill="none" stroke="#F26A3A" stroke-width="3" stroke-linecap="round" stroke-linejoin="round" stroke-miterlimit="10" points="
		83.901,73.614 83.901,74.173 83.901,75.729 	"/>
	<path fill="none" stroke="#F26A3A" stroke-width="3" stroke-linecap="round" stroke-linejoin="round" stroke-miterlimit="10" d="
		M44.319,8.121C47.725,6.172,51.362,5,54.999,5c14.45,0,28.901,17.883,28.901,30.75v32.125"/>
	
		<line fill="none" stroke="#F26A3A" stroke-width="3" stroke-linecap="round" stroke-linejoin="round" stroke-miterlimit="10" x1="42.743" y1="42.603" x2="44.32" y2="42.603"/>
	
		<line fill="none" stroke="#F26A3A" stroke-width="3" stroke-linecap="round" stroke-linejoin="round" stroke-miterlimit="10" x1="65.68" y1="42.603" x2="67.257" y2="42.603"/>
	<g>
		<path fill="#F26A3A" d="M47.129,36.821l1.777,1.721c-1.389,1.431-2.083,2.83-2.083,4.196c0,0.869,0.287,1.613,0.86,2.232
			c0.573,0.62,1.242,0.93,2.007,0.93c0.675,0,1.319-0.256,1.93-0.767c0.625-0.511,1.357-1.583,2.198-3.218
			c1.032-1.991,2.026-3.345,2.981-4.061c0.968-0.702,2.058-1.053,3.268-1.053c1.708,0,3.154,0.6,4.339,1.8
			c1.185,1.199,1.777,2.698,1.777,4.498c0,1.199-0.261,2.345-0.784,3.436s-1.242,1.994-2.16,2.709l-1.911-1.683
			c1.542-1.366,2.313-2.815,2.313-4.349c0-1.072-0.344-1.985-1.032-2.739c-0.688-0.753-1.497-1.13-2.427-1.13
			c-0.764,0-1.446,0.249-2.045,0.747c-0.586,0.498-1.325,1.621-2.217,3.37c-0.968,1.878-1.924,3.154-2.867,3.831
			s-2.02,1.016-3.23,1.016c-1.58,0-2.892-0.539-3.937-1.618c-1.045-1.078-1.567-2.44-1.567-4.087
			C44.32,40.688,45.256,38.761,47.129,36.821z"/>
	</g>
	
		<line fill="none" stroke="#F26A3A" stroke-width="2" stroke-linecap="round" stroke-linejoin="round" stroke-miterlimit="10" x1="47.229" y1="38.305" x2="47.887" y2="37.46"/>
	
		<line fill="none" stroke="#F26A3A" stroke-width="2" stroke-linecap="round" stroke-linejoin="round" stroke-miterlimit="10" x1="47.528" y1="38.545" x2="48.247" y2="37.752"/>
	
		<line fill="none" stroke="#F26A3A" stroke-width="2" stroke-linecap="round" stroke-linejoin="round" stroke-miterlimit="10" x1="63.138" y1="47.83" x2="62.445" y2="48.647"/>
	
		<line fill="none" stroke="#F26A3A" stroke-width="2" stroke-linecap="round" stroke-linejoin="round" stroke-miterlimit="10" x1="62.849" y1="47.449" x2="62.097" y2="48.212"/>
	
		<path fill="none" stroke="#F26A3A" stroke-width="3" stroke-linecap="round" stroke-linejoin="round" stroke-miterlimit="10" stroke-dasharray="0,6" d="
		M69.499,10.552C72.444,7.684,74.125,5,74.125,5"/>
	
		<path fill="none" stroke="#F26A3A" stroke-width="3" stroke-linecap="round" stroke-linejoin="round" stroke-miterlimit="10" stroke-dasharray="0,6" d="
		M35.333,5c0,0,8.292,12.375,19.667,12.375c2.363,0,4.57-0.534,6.584-1.381"/>
</g>
</svg>
