<?xml version="1.0" encoding="utf-8"?>
<!-- Generator: Adobe Illustrator 17.0.0, SVG Export Plug-In . SVG Version: 6.00 Build 0)  -->
<!DOCTYPE svg PUBLIC "-//W3C//DTD SVG 1.1//EN" "http://www.w3.org/Graphics/SVG/1.1/DTD/svg11.dtd">
<svg version="1.1" id="Layer_1" xmlns="http://www.w3.org/2000/svg" xmlns:xlink="http://www.w3.org/1999/xlink" x="0px" y="0px"
	 width="110px" height="110px" viewBox="0 0 110 110" enable-background="new 0 0 110 110" xml:space="preserve">
<g>
	
		<circle fill="none" stroke="#F26A3A" stroke-width="3" stroke-linecap="round" stroke-linejoin="round" stroke-miterlimit="10" cx="55" cy="36.566" r="3.5"/>
	
		<circle fill="none" stroke="#F26A3A" stroke-width="3" stroke-linecap="round" stroke-linejoin="round" stroke-miterlimit="10" cx="85.65" cy="22.774" r="3.5"/>
	
		<circle fill="none" stroke="#F26A3A" stroke-width="3" stroke-linecap="round" stroke-linejoin="round" stroke-miterlimit="10" cx="24.349" cy="22.774" r="3.5"/>
	
		<circle fill="none" stroke="#F26A3A" stroke-width="3" stroke-linecap="round" stroke-linejoin="round" stroke-miterlimit="10" cx="85.65" cy="61.151" r="3.5"/>
	
		<circle fill="none" stroke="#F26A3A" stroke-width="3" stroke-linecap="round" stroke-linejoin="round" stroke-miterlimit="10" cx="24.349" cy="61.151" r="3.5"/>
	
		<circle fill="none" stroke="#F26A3A" stroke-width="3" stroke-linecap="round" stroke-linejoin="round" stroke-miterlimit="10" cx="55" cy="75.081" r="3.5"/>
	
		<circle fill="none" stroke="#F26A3A" stroke-width="3" stroke-linecap="round" stroke-linejoin="round" stroke-miterlimit="10" cx="55" cy="8.5" r="3.5"/>
	<path fill="none" stroke="#F26A3A" stroke-width="3" stroke-miterlimit="10" d="M67,101.875c0,1.726-0.951,3.125-2.125,3.125H46.05
		c-1.174,0-2.125-1.399-2.125-3.125l0,0c0-1.726,0.951-3.125,2.125-3.125h18.825C66.049,98.75,67,100.149,67,101.875L67,101.875z"/>
	
		<line fill="none" stroke="#F26A3A" stroke-width="3" stroke-linecap="round" stroke-linejoin="round" stroke-miterlimit="10" x1="27.422" y1="21.097" x2="51.819" y2="9.953"/>
	
		<line fill="none" stroke="#F26A3A" stroke-width="3" stroke-linecap="round" stroke-linejoin="round" stroke-miterlimit="10" x1="76.901" y1="18.503" x2="82.578" y2="21.097"/>
	
		<line fill="none" stroke="#F26A3A" stroke-width="3" stroke-linecap="round" stroke-linejoin="round" stroke-miterlimit="10" x1="70.637" y1="15.694" x2="72.938" y2="16.745"/>
	
		<line fill="none" stroke="#F26A3A" stroke-width="3" stroke-linecap="round" stroke-linejoin="round" stroke-miterlimit="10" x1="58.5" y1="10.099" x2="66.251" y2="13.639"/>
	
		<line fill="none" stroke="#F26A3A" stroke-width="3" stroke-linecap="round" stroke-linejoin="round" stroke-miterlimit="10" x1="85.651" y1="26.274" x2="85.651" y2="57.651"/>
	
		<line fill="none" stroke="#F26A3A" stroke-width="3" stroke-linecap="round" stroke-linejoin="round" stroke-miterlimit="10" x1="82.201" y1="63" x2="58.298" y2="73.918"/>
	
		<line fill="none" stroke="#F26A3A" stroke-width="3" stroke-linecap="round" stroke-linejoin="round" stroke-miterlimit="10" x1="55" y1="67" x2="55" y2="40.066"/>
	
		<line fill="none" stroke="#F26A3A" stroke-width="3" stroke-linecap="round" stroke-linejoin="round" stroke-miterlimit="10" x1="24.349" y1="26.274" x2="24.349" y2="57.651"/>
	
		<line fill="none" stroke="#F26A3A" stroke-width="3" stroke-linecap="round" stroke-linejoin="round" stroke-miterlimit="10" x1="27.799" y1="63" x2="51.819" y2="73.971"/>
	
		<line fill="none" stroke="#F26A3A" stroke-width="3" stroke-linecap="round" stroke-linejoin="round" stroke-miterlimit="10" x1="27.422" y1="24.451" x2="51.745" y2="35.287"/>
	
		<polygon fill="none" stroke="#F26A3A" stroke-width="3" stroke-linecap="round" stroke-linejoin="round" stroke-miterlimit="10" points="
		30.366,47.611 48.8,55.823 48.8,47.611 30.366,39.399 	"/>
	
		<line fill="none" stroke="#F26A3A" stroke-width="3" stroke-linecap="round" stroke-linejoin="round" stroke-miterlimit="10" x1="58.5" y1="35.175" x2="82.578" y2="24.177"/>
	
		<line fill="none" stroke="#F26A3A" stroke-width="3" stroke-linecap="round" stroke-linejoin="round" stroke-miterlimit="10" x1="65.585" y1="54.949" x2="76.861" y2="49.799"/>
	
		<line fill="none" stroke="#F26A3A" stroke-width="3" stroke-linecap="round" stroke-linejoin="round" stroke-miterlimit="10" x1="65.585" y1="48.461" x2="76.861" y2="43.31"/>
	
		<line fill="none" stroke="#F26A3A" stroke-width="3" stroke-linecap="round" stroke-linejoin="round" stroke-miterlimit="10" stroke-dasharray="3,6" x1="46.05" y1="98.75" x2="20.849" y2="73.55"/>
	
		<line fill="none" stroke="#F26A3A" stroke-width="3" stroke-linecap="round" stroke-linejoin="round" stroke-miterlimit="10" stroke-dasharray="3,6" x1="64.875" y1="98.75" x2="88.847" y2="74.778"/>
	<g>
		
			<line fill="none" stroke="#F26A3A" stroke-width="3" stroke-linecap="round" stroke-linejoin="round" stroke-miterlimit="10" stroke-dasharray="3,6" x1="59.25" y1="98.75" x2="66.25" y2="80.375"/>
		
			<line fill="none" stroke="#F26A3A" stroke-width="3" stroke-linecap="round" stroke-linejoin="round" stroke-miterlimit="10" stroke-dasharray="3,6" x1="51.675" y1="98.75" x2="44.675" y2="80.375"/>
	</g>
</g>
</svg>
