<?xml version="1.0" encoding="utf-8"?>
<!-- Generator: Adobe Illustrator 17.0.0, SVG Export Plug-In . SVG Version: 6.00 Build 0)  -->
<!DOCTYPE svg PUBLIC "-//W3C//DTD SVG 1.1//EN" "http://www.w3.org/Graphics/SVG/1.1/DTD/svg11.dtd">
<svg version="1.1" id="Layer_1" xmlns="http://www.w3.org/2000/svg" xmlns:xlink="http://www.w3.org/1999/xlink" x="0px" y="0px"
	 width="110px" height="110px" viewBox="0 0 110 110" enable-background="new 0 0 110 110" xml:space="preserve">
<g>
	<circle fill="none" stroke="#F26A3A" stroke-width="3" stroke-miterlimit="10" cx="79.544" cy="75.729" r="6.25"/>
	<circle fill="none" stroke="#F26A3A" stroke-width="3" stroke-miterlimit="10" cx="66.764" cy="91.187" r="3.667"/>
	<path fill="none" stroke="#F26A3A" stroke-width="3" stroke-linecap="round" stroke-linejoin="round" stroke-miterlimit="10" d="
		M45.706,78.292h-4.938v-4.938c0-2.14-1.735-3.875-3.875-3.875s-3.875,1.735-3.875,3.875v4.938h-4.937
		c-2.14,0-3.875,1.735-3.875,3.875c0,2.14,1.735,3.875,3.875,3.875h4.937v4.938c0,2.14,1.735,3.875,3.875,3.875
		s3.875-1.735,3.875-3.875v-4.938h4.938c2.14,0,3.875-1.735,3.875-3.875C49.581,80.027,47.846,78.292,45.706,78.292z"/>
	
		<line fill="none" stroke="#F26A3A" stroke-width="3" stroke-linecap="round" stroke-linejoin="round" stroke-miterlimit="10" x1="14.825" y1="67" x2="14.825" y2="65.125"/>
	<path fill="none" stroke="#F26A3A" stroke-width="3" stroke-linecap="round" stroke-linejoin="round" stroke-miterlimit="10" d="
		M14.825,55V10.781C14.825,7.588,17.414,5,20.607,5h68.787c3.193,0,5.781,2.588,5.781,5.781v88.438c0,3.193-2.588,5.781-5.781,5.781
		H20.607c-3.193,0-5.781-2.588-5.781-5.781V72.75"/>
	<path fill="none" stroke="#F26A3A" stroke-width="3" stroke-linecap="round" stroke-linejoin="round" stroke-miterlimit="10" d="
		M87.022,18.537v24.926c0,3.193-2.588,5.781-5.781,5.781H28.759c-3.193,0-5.781-2.588-5.781-5.781V18.537
		c0-3.193,2.588-5.781,5.781-5.781h52.482"/>
	<g>
		
			<line fill="none" stroke="#F26A3A" stroke-width="3" stroke-linecap="round" stroke-linejoin="round" stroke-miterlimit="10" x1="46.493" y1="56.985" x2="51.528" y2="56.985"/>
		
			<line fill="none" stroke="#F26A3A" stroke-width="3" stroke-linecap="round" stroke-linejoin="round" stroke-miterlimit="10" x1="58.472" y1="56.985" x2="63.507" y2="56.985"/>
	</g>
	
		<line fill="none" stroke="#F26A3A" stroke-width="3" stroke-linecap="round" stroke-linejoin="round" stroke-miterlimit="10" x1="79.232" y1="75.729" x2="79.544" y2="75.729"/>
</g>
</svg>
